<?xml version="1.0" encoding="UTF-8"?>
<svg width="47px" height="43px" viewBox="0 0 47 43" version="1.1" xmlns="http://www.w3.org/2000/svg" xmlns:xlink="http://www.w3.org/1999/xlink">
    <title>Untitled 2</title>
    <defs>
        <filter color-interpolation-filters="auto" id="filter-1">
            <feColorMatrix in="SourceGraphic" type="matrix" values="0 0 0 0 0.176471 0 0 0 0 0.203922 0 0 0 0 0.235294 0 0 0 1.000000 0"></feColorMatrix>
        </filter>
    </defs>
    <g id="Page-1" stroke="none" stroke-width="1" fill="none" fill-rule="evenodd">
        <g id="Group-3">
            <g filter="url(#filter-1)" id="Group-1130">
                <g transform="translate(3.594584, 30.589070)">
                    <path d="M4.98619999,0.155909357 L0.105296951,0.155909357 C0.0470619813,0.155909357 0,0.202147158 0,0.259362279 L0,1.23168669 C0,1.28890181 0.0470619813,1.33513961 0.105296951,1.33513961 L1.74434049,1.33513961 L1.74434049,5.66519327 C1.74434049,5.72240839 1.79140247,5.76864619 1.84963744,5.76864619 L2.92867725,5.76864619 C2.98657365,5.76864619 3.03397421,5.72240839 3.03397421,5.66519327 L3.03397421,1.33513961 L4.44617222,1.33513961 C4.48476982,1.33513961 4.51998166,1.31451556 4.53860331,1.28125095 L5.07863108,0.308593895 C5.11655152,0.239736162 5.06610379,0.155909357 4.98619999,0.155909357" id="Fill-1118" fill="#000000"></path>
                    <path d="M31.7005893,0.155909357 L30.6315967,0.155909357 C30.5858939,0.155909357 30.5489427,0.193831007 30.5489427,0.2407341 L30.5489427,5.68382145 C30.5489427,5.73072454 30.5858939,5.76864619 30.6315967,5.76864619 L31.7005893,5.76864619 C31.7462922,5.76864619 31.7832434,5.73072454 31.7832434,5.68382145 L31.7832434,0.2407341 C31.7832434,0.193831007 31.7462922,0.155909357 31.7005893,0.155909357" id="Fill-1120" fill="#000000"></path>
                    <path d="M10.8001312,1.23168669 L10.8001312,0.259362279 C10.8001312,0.202147158 10.7528891,0.155909357 10.6944311,0.155909357 L7.2029292,0.155909357 C7.14447127,0.155909357 7.09722911,0.202147158 7.09722911,0.259362279 L7.09722911,5.66519327 C7.09722911,5.72240839 7.14447127,5.76864619 7.2029292,5.76864619 L10.6944311,5.76864619 C10.7528891,5.76864619 10.8001312,5.72240839 10.8001312,5.66519327 L10.8001312,4.69286886 C10.8001312,4.63565374 10.7528891,4.58941594 10.6944311,4.58941594 L8.39146053,4.58941594 L8.39146053,3.51131008 L10.2930427,3.51131008 C10.3515006,3.51131008 10.3987428,3.46507228 10.3987428,3.40785716 L10.3987428,2.43553275 C10.3987428,2.37831763 10.3515006,2.33207983 10.2930427,2.33207983 L8.39146053,2.33207983 L8.39146053,1.33513961 L10.6944311,1.33513961 C10.7528891,1.33513961 10.8001312,1.28890181 10.8001312,1.23168669" id="Fill-1122" fill="#000000"></path>
                    <path d="M25.7448582,0.188438759 L25.7448582,3.16044571 L22.6304094,0.0300409616 C22.6112922,0.010923986 22.5859126,0 22.5592145,0 L22.3195908,0 C22.2632281,0 22.2174129,0.0474510643 22.2174129,0.106167489 L22.2174129,5.73645817 C22.2174129,5.79483322 22.2632281,5.84228428 22.3199204,5.84228428 L23.3703753,5.84228428 C23.4267379,5.84228428 23.4728828,5.79483322 23.4728828,5.73645817 L23.4725532,2.61322228 L26.639739,5.89349047 C26.6588561,5.91363156 26.684895,5.92455555 26.7122523,5.92455555 L26.8978206,5.92455555 C26.9545129,5.92455555 27.0003281,5.87710449 27.0003281,5.81872944 L26.9999985,0.188438759 C26.9999985,0.129722334 26.9541833,0.0822712698 26.8978206,0.0822712698 L25.8473657,0.0822712698 C25.7906734,0.0822712698 25.7448582,0.129722334 25.7448582,0.188438759" id="Fill-1124" fill="#000000"></path>
                    <path d="M17.4133284,0.188438759 L17.4133284,3.16044571 L14.2988796,0.0300409616 C14.2797624,0.010923986 14.2543827,0 14.2276846,0 L13.9880609,0 C13.9316983,0 13.885883,0.0474510643 13.885883,0.106167489 L13.885883,5.73645817 C13.885883,5.79483322 13.9316983,5.84228428 13.9883906,5.84228428 L15.0388454,5.84228428 C15.0952081,5.84228428 15.1410234,5.79483322 15.1410234,5.73645817 L15.1410234,2.61322228 L18.3082091,5.89349047 C18.3273263,5.91363156 18.3533652,5.92455555 18.3807225,5.92455555 L18.5662908,5.92455555 C18.622983,5.92455555 18.6687983,5.87710449 18.6687983,5.81872944 L18.6684687,0.188438759 C18.6684687,0.129722334 18.6226534,0.0822712698 18.5662908,0.0822712698 L17.5158359,0.0822712698 C17.4591436,0.0822712698 17.4133284,0.129722334 17.4133284,0.188438759" id="Fill-1126" fill="#000000"></path>
                    <path d="M37.0743775,2.34524325 C36.4281066,2.08204346 36.1831683,1.85161563 36.1831683,1.54710952 C36.1831683,1.32487468 36.4036807,1.12756018 36.6981495,1.12756018 C37.153762,1.12756018 37.69283,1.5419889 37.9143601,1.67683186 C37.9628728,1.70653144 38.025634,1.69219371 38.056845,1.64440127 L38.6098222,0.800523352 C38.6400154,0.754096411 38.6305165,0.692648989 38.5867532,0.658852908 C38.3625091,0.484069131 37.6599227,0 36.7636247,0 C35.5043294,0 34.8746817,0.823054073 34.8746817,1.63757378 C34.8746817,2.62517039 35.757749,3.17649031 36.4610139,3.45607608 C37.0170443,3.67831092 37.3033712,3.94151071 37.3033712,4.28732314 C37.3033712,4.5751019 37.0662355,4.78095076 36.7391987,4.78095076 C36.302245,4.78095076 35.7058438,4.41909373 35.4768502,4.27230266 C35.4256234,4.2395307 35.358452,4.25728218 35.3289372,4.31087799 L34.8824845,5.12027708 C34.8594155,5.16192478 34.8662005,5.21449646 34.900804,5.24726842 C35.2139315,5.54665391 35.7974412,5.92455555 36.7961927,5.92455555 C37.998494,5.92455555 38.7261849,5.06872952 38.7261849,4.22143785 C38.7261849,3.10241203 37.7121672,2.60025005 37.0743775,2.34524325" id="Fill-1128" fill="#000000"></path>
                </g>
            </g>
            <g id="Group">
                <path d="M12.0721731,7.45669554 C12.0721731,7.33164987 12.1648072,7.23786562 12.2883193,7.23786562 L15.1754142,7.23786562 C15.2062923,7.23786562 15.2526093,7.25349633 15.2834873,7.26912704 L18.9734109,2.40797671 L11.7325149,3.04883575 C11.6398808,3.04883575 11.5626858,3.09572788 11.5009297,3.17388142 L0.0760618898,16.9601663 C-0.0783282161,17.1477348 0.0143058475,17.4447182 0.245891006,17.5072411 L6.28254415,19.1484655 L12.0721731,11.5206797 L12.0721731,7.45669554 L12.0721731,7.45669554 Z" id="Path" fill="#006AB5" fill-rule="nonzero"></path>
                <path d="M19.5600933,7.22223491 L30.1512545,7.22223491 L33.4397638,1.0949972 L19.174118,2.36108458 L15.3761214,7.36291129 C15.3915604,7.378542 15.3915604,7.40980341 15.3915604,7.44106483 L15.3915604,14.8343899 L18.1860213,14.8343899 C18.2632164,14.8343899 18.3404114,14.8812821 18.3712894,14.9438049 L19.9615075,17.5228718 C20.0232636,17.616656 19.9460685,17.726071 19.8534345,17.726071 L12.2883193,17.726071 C12.1648072,17.726071 12.0721731,17.6322867 12.0721731,17.5072411 L12.0721731,11.7395097 L6.45237326,19.1640962 L21.5517256,23.2593418 L24.5160157,17.726071 L23.0338706,17.726071 C22.9103586,17.726071 22.8177245,17.6322867 22.8177245,17.5072411 L22.8177245,10.113916 L19.5600933,10.113916 C19.4365812,10.113916 19.3439471,10.0201317 19.3439471,9.89508606 L19.3439471,7.45669554 C19.3439471,7.33164987 19.4365812,7.22223491 19.5600933,7.22223491" id="Path" fill="#006AB5" fill-rule="nonzero"></path>
                <path d="M45.9608014,0.000847604913 L33.6250319,1.0949972 L26.1371118,15.0375891 L26.1371118,17.5072411 C26.1371118,17.6322867 26.0444777,17.726071 25.9209656,17.726071 L24.7012838,17.726071 L21.7061157,23.3062339 L40.0939773,28.2924299 C40.2792455,28.339322 40.4645136,28.2299071 40.5108306,28.0423386 L40.8813669,26.2760685 L34.0882022,13.5214104 C34.0418852,13.4276262 33.9029341,13.4276262 33.8566171,13.5214104 L31.6797166,17.5697639 C31.6179605,17.6635482 31.5253265,17.7417017 31.4018144,17.7417017 L28.3140123,17.7417017 C28.2059392,17.7417017 28.1441831,17.6322867 28.1905002,17.5385025 L33.8566171,6.97214358 C33.9029341,6.87835933 34.0418852,6.87835933 34.0882022,6.97214358 L41.8540245,21.5555946 L46.3004596,0.391615316 C46.3622156,0.188416106 46.1769475,-0.0147831035 45.9608014,0.000847604913" id="Path" fill="#006AB5" fill-rule="nonzero"></path>
                <polygon id="Path" fill="#006AB5" fill-rule="nonzero" points="28.6073535 10.113916 26.1525508 10.113916 26.1525508 14.7093443"></polygon>
                <path d="M16.2489538,40.1347469 C16.2489538,39.4654668 15.7478373,38.9413922 15.068346,38.9413922 L13.107557,38.9413922 L13.1078904,42.6606531 L13.7760457,42.6606531 L13.7760457,41.3114113 L14.6782554,41.3114113 C14.7619415,41.4506082 15.4190942,42.5434874 15.4914444,42.6606531 L16.3269719,42.6606531 C16.2432858,42.5381465 15.5194509,41.3504665 15.4414328,41.2276261 C15.8591965,41.1218097 16.2489538,40.6868612 16.2489538,40.1347469 L16.2489538,40.1347469 Z M15.0013305,40.6644962 L13.7760457,40.6644962 L13.7760457,39.5936481 L14.9956625,39.5936481 C15.3300735,39.5936481 15.552792,39.839329 15.552792,40.1347469 C15.552792,40.4301647 15.3300735,40.6644962 15.0013305,40.6644962 L15.0013305,40.6644962 Z M10.0941899,38.8522661 C9.01927342,38.8522661 8.1504048,39.7221632 8.1504048,40.8040269 C8.1504048,41.9089231 9.06661775,42.796512 10.187545,42.7481102 C11.1811092,42.7050493 11.998966,41.8858905 12.0416426,40.8908163 C12.0896537,39.7692298 11.2034477,38.8522661 10.0941899,38.8522661 L10.0941899,38.8522661 Z M10.0998579,42.0918485 C9.39802812,42.0918485 8.84656661,41.5233778 8.84656661,40.8040269 C8.84656661,40.084676 9.39802812,39.5101967 10.0941899,39.5101967 C10.7960197,39.5101967 11.3528158,40.084676 11.3528158,40.8040269 C11.3528158,41.5233778 10.8013543,42.0918485 10.0998579,42.0918485 L10.0998579,42.0918485 Z M4.67459694,42.6606531 L5.34875363,42.6606531 L5.34842022,41.1271506 L7.03614582,41.1271506 L7.03614582,40.46922 L5.34842022,40.46922 L5.34842022,39.5936481 L7.47624811,39.5936481 L7.47624811,38.9413922 L4.67459694,38.9413922 L4.67459694,42.6606531 Z M26.5433465,40.1347469 C26.5433465,39.4654668 26.04223,38.9413922 25.3627387,38.9413922 L23.4022831,38.9413922 L23.4022831,42.6606531 L24.0707718,42.6606531 L24.0707718,41.3114113 L24.9729815,41.3114113 C25.0563342,41.4506082 25.7138203,42.5434874 25.7861705,42.6606531 L26.6213646,42.6606531 C26.5380119,42.5381465 25.8138436,41.3504665 25.7358254,41.2276261 C26.1535892,41.1218097 26.5433465,40.6868612 26.5433465,40.1347469 L26.5433465,40.1347469 Z M25.2960566,40.6644962 L24.0707718,40.6644962 L24.0707718,39.5936481 L25.2903886,39.5936481 C25.6244662,39.5936481 25.8471846,39.839329 25.8471846,40.1347469 C25.8471846,40.4301647 25.6244662,40.6644962 25.2960566,40.6644962 L25.2960566,40.6644962 Z M32.4130441,42.6606531 L33.1425469,42.6606531 C33.1762214,42.5772018 33.4489515,41.9413023 33.4822926,41.8745412 L35.0306525,41.8745412 C35.0753295,41.9746828 35.337057,42.5772018 35.3703981,42.6606531 L36.1112369,42.6606531 C36.0502228,42.5214562 34.2731431,38.9747727 34.2511379,38.9190272 C34.2231314,38.9804474 32.4577211,42.5605115 32.4130441,42.6606531 L32.4130441,42.6606531 Z M33.7330175,41.3057366 C33.7720266,41.2142739 34.1897903,40.3430415 34.2511379,40.2155278 C34.3011496,40.3326935 34.7355839,41.2396431 34.768925,41.3057366 L33.7330175,41.3057366 Z M36.9284269,42.6606531 L37.6079181,42.6606531 L37.6079181,38.9413922 L36.9284269,38.9413922 L36.9284269,42.6606531 Z M21.7345621,40.6364565 C21.9629485,40.5139499 22.1523259,40.2352223 22.1523259,39.8727095 C22.1523259,39.3539758 21.695553,38.9413922 21.1944366,38.9413922 L19.1112857,38.9413922 L19.1116191,42.6606531 L21.2054391,42.6606531 C21.8462547,42.6606531 22.3307007,42.1642843 22.3307007,41.5620992 C22.3307007,41.0156596 21.985287,40.714567 21.7345621,40.6364565 L21.7345621,40.6364565 Z M19.7687719,39.5883072 L21.0550708,39.5883072 C21.2891252,39.5883072 21.4671666,39.7665594 21.4671666,39.9952161 C21.4671666,40.2181982 21.2947932,40.4024589 21.0497363,40.4024589 L19.7687719,40.4024589 L19.7687719,39.5883072 Z M21.1277544,42.0083972 L19.7687719,42.0083972 L19.7687719,41.0380246 L21.1054159,41.0380246 C21.4004845,41.0380246 21.6065323,41.2556657 21.6065323,41.5233778 C21.6065323,41.7797404 21.4004845,42.0083972 21.1277544,42.0083972 L21.1277544,42.0083972 Z M41.1950852,38.9413922 L41.1950852,41.1828961 C41.0057079,40.9932946 39.1009318,39.0361929 38.939561,38.8799719 L38.939561,42.6606531 L39.6077163,42.6606531 L39.6077163,40.4191491 C39.7914256,40.6087507 41.6628606,42.5324718 41.8579059,42.7330889 L41.8579059,38.9413922 L41.1950852,38.9413922 Z M29.4690265,38.9413922 L32.2816802,38.9413922 L32.2820136,39.5936481 L31.2347702,39.5936481 L31.2347702,42.6606531 L30.5496109,42.6606531 L30.5496109,39.5936481 L29.4690265,39.5936481 L29.4690265,38.9413922 Z M27.7569619,38.9413922 L28.4364531,38.9413922 L28.4364531,42.6606531 L27.7569619,42.6606531 L27.7569619,38.9413922 Z" id="Fill-1116" fill="#6EB96F"></path>
            </g>
        </g>
    </g>
</svg>