<svg xmlns="http://www.w3.org/2000/svg" height="800" width="1200" viewBox="-39.68745 -27.21825 343.9579 163.3095"><g fill="#7509b7"><path d="M54.435 0C24.37 0 0 24.37 0 54.435c0 30.064 24.37 54.438 54.435 54.438 30.064 0 54.438-24.374 54.438-54.438C108.873 24.37 84.5 0 54.435 0zm-.025 6.712c26.39 0 47.783 21.393 47.783 47.783S80.8 102.28 54.41 102.28 6.626 80.886 6.626 54.495c0-26.39 21.394-47.783 47.784-47.783z"/><path d="M27.305 35.827v37.062h15.08c6.854 0 12.121-4.28 12.121-11.057 0-5.977-4.666-8.258-4.666-8.258s3.58-2.286 3.58-7.372c0-5.907-4.663-10.375-11.542-10.375zm8.34 7.244H40.1c3.167 0 4.549 1.628 4.549 3.638 0 2.182-1.565 3.56-4.338 3.56h-4.666zm0 14.623H40.1c3.167 0 4.549 1.628 4.549 3.638 0 2.183-1.565 3.56-4.338 3.56h-4.666zm30.047 15.079V44.326h-8.34v-8.568h25.934v8.568h-8.683v28.447zm53.843-8.889v7.985s4.887 1.959 10.733 1.959c8.45 0 13.914-3.766 13.914-11.837 0-11.079-15.173-10.839-15.173-15.936 0-1.794 1.483-2.657 4.645-2.657 4.148 0 8.59 1.895 8.59 1.895v-8.11s-3.644-1.632-9.275-1.632c-6.768 0-13.553 3.231-13.553 11.048 0 11.765 15.085 10.493 15.085 16.317 0 2.301-1.587 3.163-4.98 3.163-4.9 0-9.986-2.195-9.986-2.195zm28.822-27.887v37.12h9.234V61.014h1.787c9.944 0 13.942-5.655 13.942-12.765 0-8.69-6.274-12.252-12.86-12.252zm9.234 7.486h1.622c2.53 0 5.12.747 5.12 4.841 0 3.813-2.022 5.204-5.12 5.204h-1.622zm33.649-7.923c-8.633 0-14.784 6.226-14.784 19.145 0 10.955 3.76 19.04 14.683 19.04 10.14 0 14.678-8.777 14.678-19.213 0-13.737-6.287-18.972-14.578-18.972zm-.006 7.935c4.445 0 5.168 5.459 5.168 11.202 0 6.035-1.03 11.21-5.294 11.21-4.773 0-5.207-6.678-5.207-11.36 0-5.301.806-11.052 5.333-11.052zm43.942 4.376c0-7.795-5.352-11.874-12.828-11.874h-12.103v37.12h9.233V60.016h1.496l7.113 13.1h9.857l-8.994-15.164c3.43-1.522 6.226-4.644 6.226-10.08zm-15.698-4.388h1.622c2.53 0 5.12.982 5.12 4.54 0 3.136-2.022 4.625-5.12 4.647h-1.622zm27.325 29.634V43.42h-8.547v-7.424h26.327v7.424h-8.547v29.696z"/></g></svg>