<svg viewBox="0 0 178 62" width="178" height="62" xmlns="http://www.w3.org/2000/svg">
  <path
    d="m40.285 15.393c-0.0712 0-0.1424-6e-4 -0.2142-0.0014-1.7006-0.0236-3.2845-0.6009-4.9616-1.2118-0.9797-0.3574-1.9924-0.7249-3.0774-1.001-0.325 1.664 1.1663 3.0965 3.524 3.0678 0.8149-0.0098 1.1064-0.2395 1.8014-0.2395 0.4342 0 0.7569 0.3101 0.7569 0.6925 0 0.4889-0.3351 0.8513-1.0299 0.8513-0.2881 0-0.6809-0.079-0.9116-0.2165-0.7448 0-0.986 0.4246-1.0594 0.9037-0.1967 0.1223-0.3194 0.3383-0.3194 0.5742l-3e-4 0.4768s0.4978-0.3036 1.0214-0.3036c0.0189 0 0.9061-0.0012 0.9061-0.0012-0.2172 0.2739-0.5445 0.455-0.9151 0.4797-0.33 0.3551-0.4372 0.8677-0.1952 1.3105-0.1005 0.1996-0.098 0.4389 0.0149 0.6377l0.2352 0.4147s0.2803-0.5381 0.7609-0.8066c0.2493-0.1395 0.834-0.4783 0.834-0.4783-0.1945 0.5058 0.0081 1.0066 0.4341 1.2627 0.0251 0.2123 0.148 0.4046 0.3397 0.512l0.4161 0.2334s0.0206-0.6965 0.2873-1.1447c0.2668-0.4481 0.9421-1.5981 0.9421-1.5981h1.0929l0.0121-2.2277c0-0.6751 0.4049-1.3161 1.0833-2.2996-0.5833 0.0745-1.1711 0.113-1.7783 0.113z"
    clip-rule="evenodd" fill="#E1261C" fill-rule="evenodd" />
  <path
    d="m45.973 10.943c-0.7581 0-1.3048-0.0869-1.8825-0.5623l-0.5453-0.52019 2.3267-0.02587s4.0438-0.22184 5.1881-2.637c0.3526-0.74369 0.5062-1.5804 0.3878-2.3846-0.1151-0.80976-0.4888-1.579-1.0476-2.1664-0.556-0.59016-1.4317-1.2214-3.0229-1.2402-3.9672-0.04639-6.658 2.745-11.374 3.0034-2.9407 0.1611-7.5683 0.13636-11.346 0.1223-0.311-0.00112-0.54-0.2463-0.5006-0.5494 0.0174-0.23224 0.2276-0.4493 0.4733-0.46111l10.853-0.07929c1.7018 0 3.0704-1.5495 3.0704-3.442-0.4623 0.49513-1.0208 0.69954-1.4862 0.77433 0.0512-0.24939 0.0813-0.50779 0.0813-0.77433-0.6489 0.60338-1.9367 0.79036-2.4851 0.79036h-1.0713c-0.8579 0-1.6652 0.40038-2.2071 1.0249 0 0-6.7126 0.00675-6.8668 0.00675-1.4055 0-2.0074 1.2115-2.0924 1.9428-0.1288 1.1067 0.513 2.4178 2.188 2.5294 3.2382 0.02446 10.893 0.02446 12.407-0.13665 2.0341-0.21649 3.3892-0.72569 4.5701-1.0833 1.5808-0.47854 3.479-1.7247 5.7402-1.6687 1.6652 0.04105 2.0122 1.2973 2.0645 1.6873 0.0543 0.39391-0.02 0.79682-0.1944 1.1491-0.8222 1.6614-4.5854 1.8667-8.4569 1.5872-6.5193-0.47068-11.707-1.0552-18.216 0.0253-0.8715 0.14452-1.6892 0.37451-2.4531 0.66355 0.0416 0.67396-0.0301 1.644-0.5009 2.7943l-0.1972 0.4821-0.4755-0.2134c-0.0496-0.0222-0.1016-0.0452-0.1554-0.0686-0.3053 0.4727-0.6466 0.8832-1.018 1.2245l-0.2631 0.2418-0.3154-0.1681c-0.1683-0.0897-0.3377-0.1353-0.5037-0.1353-0.3855 0-0.7403 0.2562-0.9041 0.6523-0.7403 1.7911-1.3697 1.8473-3.0527 1.9969-0.1058 0.0093-0.5104 0.0464-0.5104 0.0464s-0.7029-0.4628-0.8157-0.5382c-2.0594-0.061-4.7106-0.5075-5.8426-0.8702-0.61144-0.1957-1.0254-0.8089-1.0254-1.4888 0-0.0866 0.00901-0.1712 0.02251-0.2541-0.16629-0.4507-0.66912-0.7313-1.1289-0.6568-0.18234-0.198-0.46456-0.2691-0.71893-0.1814l-0.45105 0.1558s0.55263 0.5156 0.70148 0.9388l0.22566 0.6433c-0.31655-0.1271-0.57992-0.3537-0.75803-0.6396-0.44965-0.2233-1.0057-0.1364-1.3647 0.2392-0.25746-0.0787-0.53744 0.0026-0.71274 0.207l-0.31036 0.3621s0.59399 0.0725 1.0732 0.4597c9e-3 0.0056 0.6891 0.5806 0.6891 0.5806-0.50536 0.0309-0.94713 0.3852-1.067 0.8955-0.26196 0.0594-0.464 0.2677-0.51493 0.5314l-0.090605 0.4682s1.0411-0.221 1.5805-0.1074l1.6751 0.5137s1.7494 5e-4 2.3768 5e-4c0.70036 0 1.2682 0.5671 1.2682 1.267 0.91448 0.3736 2.6346 1.0501 4.6583 2.84 0.4437-0.3624 0.7879-0.7437 1.123-1.1809 0.5211 0.1209 1.0917 0.2047 1.4452 0.2511 1.4764-0.8306 3.598-2.9382 5.3847-4.3392 1.1517-0.9029 2.7789-2.0115 4.8958-2.6857 0.247 0.5516 0.6407 0.984 1.0098 1.2478 1.1765-0.8112 3.4835-2.145 6.5827-1.3887 3.0256 0.7704 5.322 2.2173 8.142 2.2249 1.4547 0.0042 2.8543-0.2269 4.1653-0.6442 0.5706-0.1597 0.825-0.2677 1.567-0.2677 0.7065 0 1.2791 0.5722 1.2791 1.2782 0 0.7058-0.5726 1.2779-1.2791 1.2779-0.4998 0-0.9317-0.287-1.1422-0.7049-0.5675-0.3002-1.1052-0.1588-1.4223 0.171-0.2797-0.0155-0.5425 0.1358-0.6692 0.386l-0.2242 0.4437s0.6911-0.0095 1.0152 0.1738l0.7364 0.4049c-0.1359 0.0492-0.2817 0.0773-0.4345 0.0773-0.1795 0-0.3492-0.0385-0.5039-0.1052-0.5861 0.0872-1.0358 0.577-1.0358 1.1691 0 0-0.0014 0.5666-0.0025 0.5829-0.2243 0.1242-0.3664 0.3601-0.3647 0.6199l0.0031 0.4971s0.7777-0.3973 1.5507-0.3973l4.331-2e-4 0.9798-2.1549h0.9612s-0.0043-1.3285-0.0043-1.3558c0-0.9483 0.7474-1.7275 1.7027-1.8152-0.3807-2.5957-2.6827-3.5601-5.4672-3.5601z"
    clip-rule="evenodd" fill="#E1261C" fill-rule="evenodd" />
  <path
    d="m18.046 6.5676-0.0275 0.06242c-0.0487 0.10122-0.4823 0.91632-1.3448 0.96159l-0.0596 0.00759c-0.0085 2.8e-4 -0.0169 2.8e-4 -0.0253 2.8e-4 -0.5383 0-1.0372-0.38014-1.0372-0.38014s-9e-4 -5.6e-4 -0.0028-5.6e-4c-0.0158 0-0.0943 0.03065-0.1911 0.60001-0.0729 0.50216-0.3948 0.5075-0.4083 0.5075h-5e-4s-0.0372-0.76449 0.1778-1.3054c0.2302-0.58764 0.7547-0.62953 0.8999-0.62953 0.0242 0 0.0377 0.00112 0.0377 0.00112h0.0039c-0.0658 0.09335-0.112 0.20666-0.1078 0.32672 0.0068 0.30057 0.2527 0.53562 0.551 0.53562 0.0062 0 0.0124 0 0.0185-2.8e-4 0.3149-0.00619 0.5538-0.26036 0.547-0.55896-8e-4 -0.08941-0.0295-0.16729-0.0695-0.24068l1.0043 0.05089 0.0647-5.6e-4 -0.0304 0.06242zm-3.2969 4.434c-0.8838 0.4164-0.4069 1.5127-0.7364 2.0562-0.1958 0.3236-0.4418 0.4631-0.8019 0.4631-0.1649 0-0.3537-0.0293-0.5723-0.0835-0.6973-0.1724-1.0037-0.4257-1.0288-0.974-0.0287-0.632 0.9187-1.376 0.3405-2.154-0.5023-0.67592-0.4398-1.0243-0.4398-1.0243s0.1759 0.1583 0.5256 0.36045c0.0543 0.03009 0.2766 0.14902 0.5335 0.21228 0.0985 0.02447 0.2018 0.04077 0.3028 0.04077 0.2513 0 0.4868-0.10037 0.5906-0.42596 0.0675-0.20216-0.083-0.33459-0.215-0.43693-0.072-0.05539-0.3444-0.21622-0.4032-0.29073-0.1542-0.19344-6e-4 -0.44424-6e-4 -0.44424s0.3346 0.45408 0.9525 0.60703c0.148 0.03656 0.2859 0.05033 0.4103 0.05033 0.3947 0 0.6514-0.14002 0.6514-0.14002s0.0146 0.29242-0.2142 0.39111c-0.0878 0.03823-0.3357 0.05117-0.4257 0.06635-0.1657 0.02896-0.3619 0.07535-0.3996 0.2851-0.0911 0.47014 0.2584 0.67034 0.6019 0.75524 0.2215 0.0548 0.4401 0.0615 0.536 0.0615 0.0152 0 0.0273-2e-4 0.0361-2e-4 0.4052-0.0155 0.6364-0.0731 0.6364-0.0731s-0.1125 0.336-0.8801 0.6975zm-3.6231-6.0664 0.0031-0.07338 0.0034-0.07086 0.0602 0.03908 0.9066 0.42766c-0.0751 0.04751-0.1378 0.10572-0.1806 0.17629-0.1562 0.26092-0.0676 0.59804 0.2009 0.75156 0.0878 0.05117 0.184 0.07535 0.2797 0.07535 0.1913 0 0.3784-0.09729 0.4825-0.27105 0.0659-0.10965 0.0769-0.22662 0.0679-0.34218h0.0039s0.6123 0.27077 0.5085 1.0012c-0.0814 0.57554-0.4874 1.2307-0.4874 1.2307s-0.2921-0.15323-0.1052-0.64387c0.2163-0.60676 0.1235-0.618 0.1235-0.618s-0.1123 0.01715-0.2777 0.01715c-0.2299 0-0.5631-0.03318-0.8391-0.19148l-0.0453-0.03064c-0.7367-0.45268-0.7119-1.3726-0.7049-1.4775zm8.3765 3.0585c0.677-0.20778 1.1747-0.53534 1.3455-0.96524 0.4069-1.0403 0.444-1.9791 0.1204-3.1204-0.6646-0.38435-1.4249-0.45099-1.8703-0.45099-0.2344 0-0.3815 0.01856-0.3815 0.01856-0.3959-1.2009-1.9188-2.1751-2.9205-2.6036 0 0-0.0833 0.22521-0.3056 0.48136-0.0731-0.018-0.1272-0.03178-0.1339-0.03318-0.3939-0.09813-0.7704-0.14255-1.1281-0.14255-0.8565 0-1.6055 0.25305-2.2355 0.62222-0.0228-0.01575-0.9745-0.67536-2.0893-0.67536-0.03348 0-0.06724 5.6e-4 -0.10101 0.00197-0.82191 0.85558-1.2302 1.7019-1.3596 2.8114-0.05149 0.4614 0.23608 0.98605 0.73919 1.4885-2.9e-4 5.6e-4 -2.9e-4 0.00112-5.7e-4 0.0014l0.04108 0.0329c-0.29235 0.96918-0.66208 1.6788-1.2493 2.51 0.20232 0.15914 0.42404 0.27948 0.6967 0.38323 0.01154 0.6478 0.10496 1.3085 0.32078 1.9209h0.00309c1.0102 0 1.5825 0.8165 1.4995 1.6693-0.1688 1.7306 0.1789 1.8267 1.8157 2.9092 1.9191-0.1771 2.3029-0.1105 2.9672-1.7176 0.2352-0.5697 0.7611-0.9638 1.3698-0.9638 0.2386 0 0.4896 0.0607 0.7411 0.1948 0.4601-0.4232 0.8422-0.9391 1.1511-1.4826 0.1835 0.0678 0.3779 0.1518 0.5696 0.2379 0.4963-1.2135 0.5534-2.3289 0.3945-3.1283z"
    clip-rule="evenodd" fill="#E1261C" fill-rule="evenodd" />
  <path
    d="m11.177 46.326 0.0062 0.0023c2.1683 0.0444 4.0232 1.1795 4.8603 3.0459 1.3484 0.7788 3.6732 2.1256 7.6764 3.4465 2.5802 0.1026 6.082 0.0807 10.64-0.2626-0.2361-0.6644-0.2645-1.4714-0.0302-2.5519 0.0915-0.4212 0.0144-0.844-0.2118-1.1601-0.215-0.3005-0.5459-0.4853-0.9564-0.5333l-0.4311-0.0501-0.1607-0.4032c-0.3374-0.8457-0.4429-1.6316-0.4581-2.3362-1.1407-0.0399-5.4089-0.2736-8.8013-1.5866-0.4288 0.5353-0.8292 0.8485-0.9308 0.9245-3.2316-0.7783-6.4678-1.8287-8.7579-3.1325-0.2772 0.0849-0.5704 0.133-0.8754 0.133-1.5662 0-2.8504-1.2028-2.9798-2.7344-0.01914-0.1265-0.01492-0.6911 0.00872-0.8375-0.29348-0.7963-1.1824-1.2926-1.995-1.1607-0.32218-0.3495-0.82078-0.4752-1.2704-0.3203l-0.79743 0.275s0.97695 0.9113 1.2398 1.6589l0.399 1.1376c-0.55939-0.2246-1.0254-0.6253-1.3397-1.1306-0.7949-0.3944-1.6694-0.3492-2.3042 0.3149-0.45499-0.1389-0.94966 0.0043-1.2592 0.3658l-0.54897 0.64s1.0498 0.1285 1.8968 0.8125c0.01576 0.0099 1.2178 1.0263 1.2178 1.0263-0.89282 0.0543-1.6736 0.681-1.8858 1.5824-0.46259 0.1049-0.81995 0.4732-0.90999 0.9391l-0.1601 0.8275s2.392-0.3217 3.3456-0.1209l3.304 1.1941s1.3647-0.0031 2.4694-0.0054z"
    clip-rule="evenodd" fill="#E1261C" fill-rule="evenodd" />
  <path
    d="m39.881 47.839c-0.3694 0.2859-0.8917 0.3657-1.507 0.2105-0.0859-0.0216-0.1689-0.0463-0.2482-0.0731 0.612 0.9464 0.157 1.8487-0.1787 2.5148-0.1567 0.3112-0.3191 0.6329-0.3106 0.8421 0.0166 0.4023 0.1013 0.6849 1.0909 0.9343 0.9893 0.2497 1.2017 0.0419 1.4131-0.3031 0.1097-0.1794 0.1249-0.5382 0.1392-0.8851 0.0313-0.7426 0.0735-1.7491 1.0729-2.2893-0.0824-0.0143-0.1677-0.032-0.2535-0.0537-0.6154-0.1549-1.0343-0.4718-1.2181-0.8974z"
    clip-rule="evenodd" fill="#E1261C" fill-rule="evenodd" />
  <path
    d="m45.993 43.145-0.0368 0.0827c-0.0656 0.1347-0.6469 1.2157-1.7938 1.2708l-0.0797 0.0099c-0.7285 0.0129-1.4102-0.5117-1.4102-0.5117s-0.1137-0.0515-0.2614 0.7962c-0.1022 0.6816-0.5468 0.6717-0.5468 0.6717s-0.045-1.0164 0.2443-1.7342c0.3613-0.9101 1.2504-0.8303 1.2504-0.8303h0.0051c-0.0881 0.124-0.1503 0.2744-0.1452 0.4339 0.0073 0.4082 0.3464 0.7268 0.7541 0.7152 0.4187-0.0061 0.7381-0.3427 0.7307-0.74-5e-4 -0.1184-0.0385-0.2227-0.0911-0.32l1.3351 0.0732h0.0861l-0.0408 0.0826zm-4.2764 6.0749c-1.305 0.6079-0.6097 2.2265-1.0985 3.0253-0.424 0.6931-1.0023 0.8092-2.0282 0.5506-1.0262-0.2587-1.4764-0.6341-1.5093-1.4424-0.038-0.9318 1.3627-2.0219 0.5157-3.1721-0.7358-0.999-0.6415-1.5122-0.6415-1.5122s0.2583 0.2345 0.7724 0.5345c0.0799 0.0447 0.4069 0.2213 0.7848 0.3166 0.5053 0.1274 1.1016 0.1097 1.3191-0.5623 0.101-0.2977-0.1199-0.4934-0.314-0.6453-0.1056-0.0818-0.2688-0.1718-0.3552-0.2823-0.2256-0.2856 0.0023-0.6545 0.0023-0.6545s0.253 0.5227 1.1624 0.7518c0.9094 0.2292 1.3869-0.1094 1.3869-0.1094s0.0194 0.4314-0.3182 0.5753c-0.1295 0.0557-0.3169 0.0574-0.4491 0.079-0.2448 0.0416-0.5341 0.1088-0.5909 0.4176-0.1379 0.6922 0.3762 0.9897 0.8816 1.117 0.3778 0.0953 0.751 0.0953 0.8427 0.0939 0.5974-0.0202 0.9387-0.1034 0.9387-0.1034s-0.1683 0.4945-1.3017 1.0223zm-3.9866-6.3178c-0.9772-0.6065-0.939-1.8296-0.9286-1.969l0.0045-0.0976 0.0048-0.0939 0.0799 0.0517 1.2027 0.5742c-0.0999 0.063-0.1838 0.14-0.2412 0.2336-0.209 0.3464-0.0931 0.7949 0.2631 1.0007 0.3486 0.205 0.8056 0.09 1.0144-0.2559 0.0881-0.1453 0.1035-0.3008 0.0926-0.4546h5e-3s0.8127 0.3638 0.6703 1.3344c-0.112 0.7648-0.6556 1.6336-0.6556 1.6336s-0.3875-0.2055-0.1359-0.8567c0.2912-0.8056 0.1677-0.821 0.1677-0.821s-0.8546 0.1262-1.4838-0.2382l-0.0599-0.0413zm12.242 0.4279c0.4727-1.2084 0.5161-2.2994 0.1399-3.6253-1.1067-0.6402-2.5108-0.5385-2.6782-0.5236-0.8543-1.3425-2.0091-2.4793-4.066-2.9918v2e-4c-3e-4 -3e-4 -3e-4 -5e-4 -5e-4 -5e-4 -0.0363-9e-3 -0.9421-0.2345-0.9787-0.2435-2.0557-0.512-3.609-0.0509-4.9931 0.7327-0.1559-0.1012-1.3267-0.8337-2.594-0.7878-0.955 0.9942-1.4292 1.9777-1.58 3.2663-0.0487 0.4386 0.2628 1.0248 0.6976 1.543-1.4545 1.4784-1.8335 2.794-1.9236 3.9032 0.4351 0.0329 0.8535 0.1119 0.8622 0.1138-0.0518 0.9-0.0197 1.8481 0.3891 2.8733 1.3493 0.1577 2.0592 1.3541 1.7953 2.5701-0.5698 2.6258 0.5005 3.1884 2.9598 4.9277 2.9829-0.3796 4.1974-0.3765 4.9284-2.9626 0.3382-1.1972 1.527-1.921 2.7924-1.4272 2.5583-2.0731 2.995-4.5541 3.1053-5.1577 3e-4 0 6e-4 -3e-4 9e-4 -3e-4 -0.3203-0.2545-0.5335-0.629-0.5952-1.033 0.7797-0.2429 1.5414-0.6816 1.7384-1.177z"
    clip-rule="evenodd" fill="#E1261C" fill-rule="evenodd" />
  <path
    d="m13.5 10.069c-0.2499 0.1954-0.6039 0.2511-1.022 0.1476-0.0582-0.0143-0.1148-0.0312-0.1685-0.0489 0.4181 0.6405 0.1122 1.2543-0.1137 1.707-0.1055 0.2117-0.2144 0.4304-0.2082 0.5724 0.0123 0.2731 0.0706 0.4645 0.7431 0.6307 0.6719 0.1662 0.8157 0.0247 0.9581-0.21 0.0737-0.1221 0.0827-0.3656 0.0917-0.6012 0.0189-0.5038 0.0445-1.1871 0.7209-1.5565-0.056-0.0096-0.1139-0.0211-0.1722-0.0354-0.4178-0.1035-0.7032-0.3172-0.8292-0.6057z"
    clip-rule="evenodd" fill="#E1261C" fill-rule="evenodd" />
  <path
    d="m41.112 32.261c2.6835-0.291 5.9213 0.9 7.8598 3.2064 0.5318 0.1724 1.3045 0.4178 2.1553 0.6709 0.0437-0.6602 0.0667-1.3297 0.0667-2.009v-4.4494c-3.9297 0.0624-7.4076 0.9596-10.082 2.5811z"
    clip-rule="evenodd" fill="#E1261C" fill-rule="evenodd" />
  <path
    d="m25.271 27.42c-0.3356 0.2595-0.807 0.3279-1.3596 0.1797-0.0768-0.0205-0.1517-0.0442-0.2226-0.0692 0.5411 0.8742 0.1213 1.698-0.1882 2.3061-0.1446 0.2843-0.2943 0.5781-0.289 0.7699 0.0107 0.3697 0.0839 0.6298 0.9725 0.8677 0.8886 0.2375 1.0822 0.0492 1.276-0.2657 0.1008-0.1634 0.1182-0.4927 0.1351-0.8109 0.0363-0.6813 0.0853-1.6046 0.9913-2.0913-0.0743-0.0138-0.1505-0.0307-0.2279-0.0512-0.5524-0.1479-0.9266-0.4426-1.0876-0.8351z"
    clip-rule="evenodd" fill="#E1261C" fill-rule="evenodd" />
  <path
    d="m30.479 23.291-0.0315 0.0703c-0.0562 0.1139-0.5526 1.0291-1.5118 1.0665l-0.0664 0.0078c-0.6089 0.0048-1.1734-0.4476-1.1734-0.4476s-0.0942-0.0447-0.2265 0.6757c-0.092 0.5792-0.4632 0.5674-0.4632 0.5674s-0.0275-0.8655 0.2215-1.4745c0.3109-0.7718 1.0529-0.6961 1.0529-0.6961h0.0042c-0.0748 0.1048-0.1283 0.2322-0.1255 0.3683 2e-3 0.3472 0.2823 0.6214 0.623 0.6149 0.3498-0.0017 0.6199-0.2857 0.6179-0.6236 6e-4 -0.1013-0.0301-0.1898-0.0728-0.2733l1.1145 0.0736 0.072 3e-4 -0.0349 0.0703zm-3.5695 5.4141c-1.1821 0.5458-0.5735 2.0377-1.0223 2.7664-0.3894 0.6321-0.9114 0.7333-1.8329 0.4865-0.9215-0.2466-1.3228-0.5953-1.3439-1.337-0.0242-0.8553 1.2496-1.8433 0.4989-2.9067-0.652-0.9236-0.5614-1.3934-0.5614-1.3934s0.2302 0.2173 0.69 0.4976c0.0715 0.0419 0.3641 0.2067 0.7034 0.2975 0.4539 0.1215 0.9911 0.1108 1.1945-0.5039 0.094-0.2721-0.103-0.454-0.276-0.5952-0.0943-0.0759-0.2403-0.1602-0.3169-0.2623-0.2003-0.2643 9e-3 -0.6006 9e-3 -0.6006s0.2223 0.4822 1.0389 0.7007c0.8168 0.2187 1.2505-0.0877 1.2505-0.0877s0.0132 0.3958-0.293 0.5249c-0.117 0.05-0.2858 0.0498-0.4054 0.0686-0.2206 0.0357-0.482 0.0948-0.5366 0.3776-0.1314 0.6338 0.3281 0.9115 0.7822 1.033 0.3391 0.0908 0.675 0.0945 0.7578 0.0939 0.5385-0.0129 0.8466-0.0863 0.8466-0.0863s-0.1567 0.4524-1.1834 0.9264zm-4.0882-7.3744 0.0048-0.0829 5e-3 -0.0802 0.0662 0.045 0.9991 0.4988c-0.0841 0.0526-0.155 0.1175-0.2037 0.1968-0.1784 0.293-0.0858 0.676 0.2096 0.8542 0.2893 0.1774 0.672 0.0835 0.8504-0.2094 0.0748-0.1229 0.0892-0.2551 0.0816-0.3861h0.0042s0.6756 0.3166 0.5467 1.1415c-0.1013 0.6501-0.5642 1.3851-0.5642 1.3851s-0.3216-0.1783-0.1049-0.7305c0.2513-0.6832 0.1483-0.6973 0.1483-0.6973s-0.7153 0.1001-1.2372-0.2154l-0.0499-0.0357c-0.8103-0.5243-0.7662-1.5652-0.756-1.6839zm10.171 2.0326 0.1123-0.1271c0.9032-1.0206 1.1379-2.4512 1.199-3.1288-0.2465 0.0191-0.5729 0.0244-0.9075-0.0273l-0.2496-0.0385-0.0343-0.2503c-0.0023-0.0171-0.2375-1.6155-1.3658-2.8302-0.3934 0.564-1.0985 0.9315-2.0142 0.6757-0.8812-0.2857-1.4085-1.222-1.1826-2.1282 0.0338-0.1361 0.0833-0.2662 0.1463-0.3883-1.8419 0.0147-3.0265 1.0637-3.0397 1.0755l-0.1537 0.1389-0.1941-0.0728c-0.0532-0.0203-1.1334-0.4381-1.6205-1.2855-0.4277 0.3627-1.1579 1.0996-1.4682 2.1135l-0.076 0.2483-0.2597-9e-3c-0.6981-0.0265-1.0921 0.1543-1.8312 0.5117 0.5982 1.3428 0.2633 2.6531-0.2848 3.4671-0.4451 0.6615-1.0546 1.0726-1.6933 1.1609 0.3382 0.9787 0.9445 1.4879 0.9516 1.4935l0.2169 0.1789-0.1348 0.2468c-0.7538 1.3651-0.7496 2.6202-0.6882 3.2157 0.8424-0.2128 1.3951-0.1816 1.3951-0.1816s-0.5898 1.5323 0.3433 2.9815c0.052 0.0807 0.0934 0.1684 0.1395 0.2547 0.5839 1.0929 0.585 2.3238 0.4691 3.4277 0.5847-0.0073 1.0976-0.4715 1.0976-0.4715l0.0788 0.5401c0.1506 1.0338 0.4708 1.6561 1.2482 2.3264 0.1964-0.6667 0.6678-1.6983 1.7086-1.7444 0.5436-0.0211 0.9876 0.2775 1.2364 0.4943 1.5709-1.0203 2.2271-2.4698 2.6987-3.8913l0.1162-0.3498s0.7369 0.2429 1.184 0.5592c1.5009-1.5337 1.6126-4.7536 1.6126-4.7536s0.7232 0.1982 1.2539 0.4543c0.3351-1.2289 0.3351-2.2212 0.0244-3.7206l-0.0343-0.1659z"
    clip-rule="evenodd" fill="#E1261C" fill-rule="evenodd" />
  <path
    d="m51.172 29.008v-6.6437c-5.1453-0.2289-12.086 0.5851-17.335 1.888 0.3368 2.2474-0.4299 3.9316-0.4299 3.9316l-0.6964-0.3304c-0.1284-0.0618-0.2412-0.1108-0.3371-0.149-0.2955 3.1319-2.1292 4.725-2.1292 4.725s-0.3824-0.3369-0.8895-0.5311c-0.4862 1.3664-1.2344 2.8445-2.8512 3.8947l-0.4257 0.2764-0.3827-0.3338c-0.141-0.1231-0.3971-0.3334-0.7643-0.3289-0.6477 0.0073-0.9282 0.7015-1.0937 1.2629l-0.2341 0.9133s-0.2189-0.1097-0.8498-0.5944c-0.6308-0.485-1.186-1.3367-1.3956-2.3002-0.6694 0.1805-1.3557 0.1307-1.3557 0.1307s0.2485-1.4921 0.1159-2.4681c-3.3211-0.1116-7.9765-0.747-10.806-1.8652-0.9581 0.6031-2.0732-0.0816-2.3034-0.2365-0.41166-0.3897-0.6756-0.9267-0.6756-1.5394 0-0.1231 0.01267-0.2432 0.03152-0.361-0.23552-0.6391-0.9491-1.0378-1.6016-0.9318-0.25859-0.2806-0.65899-0.3815-1.02-0.2569l-0.64014 0.2207s0.78448 0.7316 0.99552 1.3319l0.32021 0.9132c-0.44936-0.1802-0.82332-0.5022-1.0757-0.9079-0.63817-0.3166-1.3402-0.28-1.8498 0.253-0.36552-0.1116-0.76254 0.0034-1.0113 0.2936l-0.44036 0.514s0.84273 0.1031 1.5228 0.6523c0.01266 0.0078 0.97751 0.8238 0.97751 0.8238-0.71667 0.0441-1.3436 0.5468-1.5141 1.2706-0.37114 0.0843-0.65814 0.3798-0.73046 0.754l-0.12859 0.6642s1.9207-0.2581 2.6861-0.0968l2.5682 0.9479s2.5341 5e-3 2.8568 5e-3c1.4072 0 2.6092 0.8913 2.8487 2.2766 0.0014 9e-3 2.8408 0.1614 5.5133 1.4025 1.3968 0.6787 3.0032 1.7224 4.5981 3.3273 0.5385-0.4198 1.0906-1.1193 1.4913-1.6848 1.9331 0.4884 2.8017 0.6743 3.7359 0.7938 1.4302-0.9706 3.4491-3.3029 5.145-4.8757 0.6655-0.6175 1.5046-1.3266 2.5305-1.9817 0.5301-0.086 1.6939-0.1462 3.2035 0.5348 0.4406-0.4887 1.3489-1.3783 1.3489-1.3783 2.9306-2.6418 7.341-4.1227 12.477-4.2062z"
    clip-rule="evenodd" fill="#E1261C" fill-rule="evenodd" />
  <path
    d="m10.245 13.83c-0.31792-0.5123-0.33255-1.1204-0.2532-1.9352 0.0301-0.3082-0.06134-0.6043-0.25043-0.8129-0.18093-0.199-0.43923-0.3042-0.74875-0.3042l-0.3582 8e-4 -0.11874-0.3374c-0.18656-0.52939-0.29967-1.1176-0.33681-1.7519-0.7451-0.38633-1.0417-0.64584-1.5445-0.93994 0.04052-0.28117 0.05627-0.57442 0.04024-0.86852-0.09961 0.01883-0.20204 0.0298-0.30727 0.0298-0.90689 0-1.6419-0.73469-1.6419-1.6409 0-0.46955 0.1981-0.89186 0.51437-1.1907 0.22566-0.86374-0.36692-1.1913-0.36692-1.1913 0.03236-0.28229-0.12944-0.49401-0.3537-0.69504 0 0-0.26196-0.22156-0.43276-0.27977 0 0.00113-0.02786 0.79767-0.26591 1.2242-0.23833 0.42653-0.37142 0.64106-0.37142 0.64106-0.07175-0.14311-0.11283-0.30366-0.11283-0.47433 0-0.18472 0.0484-0.35736 0.1314-0.50863-0.0242-0.66046-0.32162-0.93122-0.81291-0.91547-0.11592-0.25839-0.37339-0.42428-0.65674-0.42261l-0.50367 0.00339s0.37536 0.66383 0.37536 1.1727c0 0.018-0.00112 0.04105-0.00309 0.06664-0.2403-0.5002-0.57486-0.81932-0.99581-0.81932l-0.50395 0.00309s0.37564 0.66384 0.37564 1.173 0.002251 3.9909 0.002251 3.9909c0.56755 0.28819 1.5282 0.77545 1.8104 0.91997 0.35369 0.18107 0.5726 0.57302 0.57683 0.99899 0.00197 0.20609-0.04925 0.40009-0.14069 0.56908 0.75072 0.68319 3.1033 2.9643 5.8659 4.6159 0.59569 0.079 1.2138 0.1378 1.8093 0.1634-0.1714-0.1516-0.3115-0.3071-0.4216-0.4848z"
    clip-rule="evenodd" fill="#E1261C" fill-rule="evenodd" />
  <path
    d="m19.705 30.974c-0.0447-0.0832-0.0897-0.1648-0.1348-0.246-0.3604-0.6507-0.7321-1.321-0.5861-2.5533-0.1159 0.0155-0.2504 0.0399-0.3922 0.0773l-0.7598 0.201-0.0807-0.7813c-0.0554-0.5376-0.0656-1.4899 0.314-2.5896-0.7563-0.0753-3.3583-0.4189-5.5086-1.7184-0.2698 0.3374-0.3396 0.4847-0.5864 0.6773-1.6897-0.4249-3.0501-0.9349-4.0575-1.6038-0.22397 0.2623-0.55685 0.4294-0.92911 0.4294-0.67447 0-1.2215-0.5466-1.2215-1.2206 0-0.449 0.24312-0.8401 0.60441-1.0521 0.15476-0.9891-0.53491-1.3704-0.53491-1.3704 0.04306-0.3768-0.17276-0.6588-0.47187-0.927 0 0-0.34919-0.2955-0.57683-0.3728 0 0.0014-0.03714 1.0636-0.35482 1.6321-0.3174 0.5685-0.49523 0.8548-0.49523 0.8548-0.09511-0.1907-0.15026-0.4049-0.15026-0.6326 0-0.2461 0.06472-0.4763 0.1753-0.6779-0.03236-0.8807-0.47891-1.242-1.134-1.2206-0.1542-0.3447-0.49748-0.566-0.87566-0.5635l-0.67165 0.0043s0.50057 0.8851 0.50057 1.5638c0 0.0838-0.01575 0.2311-0.04305 0.4249-0.1722-0.284-0.48144-0.4617-0.81994-0.4597l-0.67166 0.0042s0.50086 1.2779 0.50086 1.9566c0 0.6557 0.001126 3.7752 0.001407 3.9878l5.5229 1.7868c0.82051 0.2679 1.4176 1.0333 1.4266 1.9437 2.9e-4 0.0394-5.6e-4 0.0784-0.00253 0.1172 0.937 0.5382 2.5457 1.1863 5.3029 2.1861 1.8065 0.3751 4.2033 0.74 6.9887 0.8435-0.0676-0.239-0.1576-0.4746-0.2786-0.7012z"
    clip-rule="evenodd" fill="#E1261C" fill-rule="evenodd" />
  <path
    d="m38.593 55.748c-0.1607 0.02-0.7803 0.0982-0.7803 0.0982s-0.5147-0.3633-0.6492-0.4578c-1.0684-0.7504-1.9269-1.3543-2.4466-2.127-3.2161 0.2503-5.9329 0.3461-8.2073 0.3461-4.1841 0-6.8733-0.325-8.4417-0.6157-0.2923 0.1054-0.6069 0.1639-0.9356 0.1639-1.5217 0-2.7552-1.2326-2.7552-2.7532 0-0.2809 0.0424-0.5519 0.1204-0.8072-0.217-0.8025-1.0406-1.3642-1.845-1.3069-0.2839-0.3689-0.7595-0.5353-1.2119-0.4231l-0.8025 0.1985s0.8737 0.9748 1.0647 1.7277l0.1424 0.5624c-0.4851-0.2871-0.8664-0.7162-1.1005-1.2225-0.7248-0.48-1.5808-0.5421-2.2792 0.0264-0.42544-0.1903-0.92377-0.1108-1.2687 0.2027l-0.61144 0.5562s1.1644 0.2707 1.7747 1.0155c0.06556 0.0807 0.19668 0.2455 0.39224 0.4789-0.4533-0.1058-0.92659 0.0663-1.2057 0.4389l-0.49523 0.6613s1.1947 0.0464 1.9348 0.6621c0.40434 0.3397 2.076 2.0098 5.7354 4.1289 0.5661 0.1117 1.7102 0.3177 2.5602 0.4623 0.412 0.4906 0.7114 0.9925 0.7719 1.4117l4.0046-0.034c0.1547 5e-4 0.3109 0.0062 0.4685 0.0261 2.5786 0.3222 3.4188 2.6523 3.4188 2.6523 5.5845-1.5015 10.294-3.602 14.081-6.272-0.4393 0.0756-0.9162 0.135-1.4339 0.1993z"
    clip-rule="evenodd" fill="#E1261C" fill-rule="evenodd" />
  <path d="m79.259 9.8594 7.6215 12.166v-12.166h3.5628v19.317h-3.3771l-7.5284-12.042v12.042h-3.5628v-19.317h3.284z"
    clip-rule="evenodd" fill="#E1261C" fill-rule="evenodd" />
  <path d="m142.26 9.8594 7.621 12.166v-12.166h3.563v19.317h-3.377l-7.528-12.042v12.042h-3.563v-19.317h3.284z"
    clip-rule="evenodd" fill="#E1261C" fill-rule="evenodd" />
  <path
    d="m160.31 25.71h2.293c1.301 0 2.292-0.2477 2.912-1.2382 0.65-1.0527 0.805-2.6936 0.805-5.2938 0-2.0432-0.185-3.7769-0.898-4.7675-0.558-0.8049-1.518-1.0836-2.819-1.0836h-2.293v12.383zm2.323-15.85c6.197 0 7.622 3.7147 7.622 9.6586 0 4.7674-1.146 9.6586-7.157 9.6586h-6.63v-19.317h6.165z"
    clip-rule="evenodd" fill="#E1261C" fill-rule="evenodd" />
  <path
    d="m66.192 21.159h6.6918v-3.4671h-6.6918v-4.3341h6.4102l1.4201-3.498h-11.672v19.317h11.122v-3.4671h-7.2805v-4.5509z"
    clip-rule="evenodd" fill="#E1261C" fill-rule="evenodd" />
  <path d="m119.99 25.71h-6.614v-15.85h-3.842v19.318h9.057l1.399-3.4674z" clip-rule="evenodd" fill="#E1261C"
    fill-rule="evenodd" />
  <path
    d="m101.18 19.115-1.3439 3.3433h3.2159v0.3405c0 0.1409-5e-3 0.2755-0.013 0.4046-0.127 1.915-1.189 2.5673-2.93 2.5673-2.1689 0-3.0986-1.1764-3.0986-3.0956v-6.3156c0-1.9192 0.9297-3.0956 3.0986-3.0956 1.707 0 2.628 0.6304 2.767 2.4833 0.012 0.1644 0.021 0.3351 0.021 0.5196v0.2786h3.842v-0.3405c0-4.4579-2.324-6.532-6.63-6.532-4.3994 0-6.94 2.26-6.94 6.718v6.2531c0 4.4579 2.5406 6.7179 6.94 6.7179 4.306 0 6.785-2.1051 6.785-6.5318v-3.715h-5.714z"
    clip-rule="evenodd" fill="#E1261C" fill-rule="evenodd" />
  <path
    d="m127.7 21.765h3.439l-1.673-6.532h-0.062l-1.704 6.532zm3.78-11.919 5.731 19.318h-4.12l-1.054-3.9934h-5.266l-1.023 3.9934h-3.903l5.576-19.318h4.059z"
    clip-rule="evenodd" fill="#E1261C" fill-rule="evenodd" />
  <path
    d="m79.37 46.464c0 1.9192 0.8988 3.0959 3.0983 3.0959 2.1996 0 3.098-1.1767 3.098-3.0959v-6.3153c0-1.9192-0.8984-3.0956-3.098-3.0956-2.1995 0-3.0983 1.1764-3.0983 3.0956v6.3153zm-3.8414-6.2841c0-4.4582 2.5403-6.7179 6.9397-6.7179s6.9397 2.2597 6.9397 6.7179v6.2531c0 4.4579-2.5403 6.7177-6.9397 6.7177s-6.9397-2.2598-6.9397-6.7177v-6.2531z"
    clip-rule="evenodd" fill="#E1261C" fill-rule="evenodd" />
  <path
    d="m95.609 46.464c0 1.9192 0.8981 3.0959 3.098 3.0959 2.1997 0 3.0987-1.1767 3.0987-3.0959v-6.3153c0-1.9192-0.899-3.0956-3.0987-3.0956-2.1999 0-3.098 1.1764-3.098 3.0956v6.3153zm-3.8417-6.2841c0-4.4582 2.5403-6.7179 6.9397-6.7179 4.3997 0 6.9397 2.2597 6.9397 6.7179v6.2531c0 4.4579-2.54 6.7177-6.9397 6.7177-4.3994 0-6.9397-2.2598-6.9397-6.7177v-6.2531z"
    clip-rule="evenodd" fill="#E1261C" fill-rule="evenodd" />
  <path
    d="m127.06 49.714h2.665c1.92 0 2.726-0.9905 2.726-2.6314s-0.744-2.5384-3.005-2.5384h-2.386v5.1698zm0-8.5134h2.386c1.58 0 2.106-0.8047 2.106-2.1979 0-1.2382-0.588-2.1051-2.106-2.1051h-2.386v4.303zm2.324-7.5535c1.735 0 3.501 0.3095 4.709 1.7027 0.743 0.8668 1.177 2.043 1.177 3.4674 0 1.6096-0.65 2.786-1.642 3.6219 1.952 0.9906 2.727 2.5384 2.727 4.6435 0 3.7769-1.797 5.882-6.569 5.882h-6.568v-19.318h6.166z"
    clip-rule="evenodd" fill="#E1261C" fill-rule="evenodd" />
  <path d="m121.51 33.647h-14.207v3.4982h4.926v15.819h3.841v-15.819h4.038l1.402-3.4982z" clip-rule="evenodd"
    fill="#E1261C" fill-rule="evenodd" />
  <path d="m66.192 37.145h6.4884l1.4128-3.4982h-11.743v19.318h3.8416v-8.018h6.6918v-3.4671h-6.6918v-4.3342z"
    clip-rule="evenodd" fill="#E1261C" fill-rule="evenodd" />
  <path d="m165.4 49.496h-6.614v-15.85h-3.841v19.318h9.057l1.398-3.4673z" clip-rule="evenodd" fill="#E1261C"
    fill-rule="evenodd" />
  <path d="m177.51 49.496h-6.614v-15.85h-3.841v19.318h9.057l1.398-3.4673z" clip-rule="evenodd" fill="#E1261C"
    fill-rule="evenodd" />
  <path
    d="m143.56 45.576h3.439l-1.673-6.5318h-0.062l-1.704 6.5318zm3.78-11.919 5.731 19.318h-4.12l-1.054-3.9934h-5.266l-1.023 3.9934h-3.904l5.577-19.318h4.059z"
    clip-rule="evenodd" fill="#E1261C" fill-rule="evenodd" />
</svg>