<svg xmlns="http://www.w3.org/2000/svg" width="171" height="60" viewBox="0 0 171 60">
  <g fill="none" fill-rule="evenodd">
    <path fill="#E0251B" d="M83.4 29.262c1.291 0 2.494.178 3.607.535 1.114.357 2.082.892 2.905 1.606.824.714 1.473 1.618 1.949 2.714.476 1.095.714 2.372.714 3.833 0 1.218-.23 2.352-.69 3.407a8.554 8.554 0 0 1-1.912 2.763 8.635 8.635 0 0 1-2.918 1.837c-1.13.438-2.373.657-3.728.657-1.275 0-2.474-.158-3.596-.474-1.122-.316-2.098-.828-2.929-1.534-.831-.706-1.49-1.606-1.973-2.7-.485-1.096-.726-2.406-.726-3.932 0-1.2.221-2.328.666-3.382a8.443 8.443 0 0 1 1.876-2.775c.807-.795 1.783-1.42 2.929-1.874 1.146-.454 2.421-.681 3.826-.681zm20.966 0c.42 0 .863.032 1.332.097.467.065.92.15 1.356.255.435.106.85.232 1.246.377.396.147.73.3 1.005.463a7.695 7.695 0 0 0-.375 1.229c-.089.414-.15.832-.181 1.253h-.34c-.613-.778-1.242-1.334-1.888-1.667-.646-.332-1.405-.499-2.276-.499-.645 0-1.295.147-1.949.438-.653.292-1.247.739-1.78 1.34-.531.6-.964 1.366-1.295 2.299-.331.933-.496 2.048-.496 3.346 0 1.25.17 2.317.509 3.2.338.885.778 1.607 1.319 2.167.54.56 1.153.97 1.84 1.23a5.821 5.821 0 0 0 2.07.388 5.45 5.45 0 0 0 1.186-.134c.403-.088.8-.21 1.187-.364a6.243 6.243 0 0 0 1.102-.572c.346-.228.648-.479.908-.755l.314.195c-.13.34-.242.686-.34 1.034a6.14 6.14 0 0 0-.193 1.035c-1.308.664-2.953.997-4.939.997-1.404 0-2.659-.199-3.765-.596-1.105-.397-2.041-.957-2.808-1.679a7.24 7.24 0 0 1-1.756-2.568 8.456 8.456 0 0 1-.605-3.213c0-1.687.262-3.118.787-4.295.525-1.176 1.227-2.134 2.107-2.872a8.363 8.363 0 0 1 3.063-1.619 12.93 12.93 0 0 1 3.655-.51zm-33.071.316a103.034 103.034 0 0 0-.195 6.742v3.31c0 1.346.017 2.542.049 3.589.032 1.047.08 2.074.146 3.079a7.635 7.635 0 0 0-.897-.048H68.22c-.322 0-.621.015-.895.048.064-1.005.113-2.032.145-3.08.032-1.046.049-2.242.049-3.589v-1.387a140.72 140.72 0 0 1-1.84-.06 46.187 46.187 0 0 0-1.84-.038 69.178 69.178 0 0 0-3.68.098v1.387c0 1.347.015 2.543.048 3.59.032 1.047.08 2.074.145 3.079a7.622 7.622 0 0 0-.896-.048h-2.178c-.323 0-.623.015-.897.048a92.79 92.79 0 0 0 .146-3.08c.032-1.046.048-2.242.048-3.589v-3.31a101.907 101.907 0 0 0-.194-6.741c.274.032.574.06.897.085.322.024.685.037 1.09.037a14.8 14.8 0 0 0 1.088-.037c.323-.024.622-.053.896-.085a59.53 59.53 0 0 0-.157 3.127c-.024 1.03-.037 2.22-.037 3.565.42.017.924.03 1.514.037.589.009 1.319.013 2.19.013l.624-.001a125.82 125.82 0 0 0 1.507-.012 70.91 70.91 0 0 0 1.526-.037c0-1.346-.017-2.535-.049-3.565-.032-1.03-.081-2.072-.145-3.127.274.032.573.06.895.085.323.024.687.037 1.09.037s.766-.013 1.09-.037c.322-.024.62-.053.896-.085zm81.588 0a64.94 64.94 0 0 0-1.028 1.788 289.782 289.782 0 0 0-2.736 5.039c-.477.9-.908 1.732-1.296 2.494 0 .39-.008.783-.024 1.18-.016.398-.023.8-.023 1.205 0 .828.011 1.647.035 2.459.025.811.093 1.663.206 2.555a10.735 10.735 0 0 0-1.029-.048h-2.057c-.347 0-.69.015-1.03.048.033-.746.09-1.509.17-2.288.081-.779.12-1.557.12-2.337a55.97 55.97 0 0 0-.048-2.263c-.403-.811-.867-1.715-1.392-2.713-.524-.998-1.033-1.967-1.525-2.908-.493-.941-.944-1.793-1.356-2.556a90.336 90.336 0 0 0-.908-1.655c.372.032.734.06 1.09.085a16.117 16.117 0 0 0 2.167 0c.347-.024.706-.053 1.078-.085.273.6.584 1.265.931 1.996.347.73.69 1.444 1.03 2.141.338.698.653 1.33.943 1.898.291.57.525.991.703 1.266h.048c.323-.47.645-1.001.968-1.594.323-.592.638-1.212.945-1.862.306-.648.605-1.302.896-1.959.29-.657.571-1.286.847-1.886.177.032.359.06.545.085a4.429 4.429 0 0 0 1.138 0c.185-.024.382-.053.592-.085zm-27.842 0c-.274.276-.694.722-1.259 1.338-.564.617-1.166 1.282-1.803 1.996a165.99 165.99 0 0 0-1.828 2.08c-.581.675-1.033 1.206-1.356 1.595.516.795 1.09 1.671 1.72 2.629.628.957 1.253 1.894 1.875 2.81.621.917 1.199 1.761 1.732 2.532.532.77.96 1.35 1.283 1.74a18.302 18.302 0 0 0-1.26-.049h-2.142c-.348 0-.698.016-1.053.049a134.63 134.63 0 0 1-2.42-3.76 226.141 226.141 0 0 0-2.422-3.809h-.049c0 1.768.008 3.286.025 4.551.015 1.265.072 2.272.17 3.018a7.646 7.646 0 0 0-.897-.049h-2.178c-.323 0-.622.016-.897.049a91.62 91.62 0 0 0 .145-3.079c.033-1.047.05-2.243.05-3.59l-.001-3.807a102.897 102.897 0 0 0-.193-6.244c.274.033.573.061.896.085.322.024.685.037 1.089.037.403 0 .766-.013 1.09-.037.322-.024.62-.052.895-.085-.082.487-.133 1.217-.158 2.19a137.5 137.5 0 0 0-.036 3.237v2.337c.549-.65 1.138-1.359 1.768-2.13a230.41 230.41 0 0 0 1.816-2.252c.58-.73 1.105-1.399 1.573-2.007.468-.609.808-1.067 1.017-1.375.226.033.452.061.678.085a6.271 6.271 0 0 0 1.368 0c.234-.024.488-.052.762-.085zm11.888 0c-.066.26-.097.6-.097 1.022 0 .26.007.462.024.608.016.146.04.308.073.487-.469-.032-.98-.065-1.538-.097a300.53 300.53 0 0 1-1.622-.098 66.737 66.737 0 0 0-1.416-.073c-.42-.016-.719-.024-.896-.024a43.298 43.298 0 0 0-.11 2.653c-.007.876-.01 1.76-.01 2.653a125.4 125.4 0 0 0 2.844-.073c.847-.033 1.73-.074 2.651-.122a10.6 10.6 0 0 0-.097.633c-.016.146-.025.3-.025.462 0 .13.013.265.037.402.025.138.052.337.085.596a69.583 69.583 0 0 0-5.496-.22c0 .52-.004 1.04-.012 1.559l-.01.779-.002.778c0 1.055.024 2.069.071 3.042.921 0 1.842-.024 2.762-.072.92-.05 1.847-.13 2.784-.244a6.626 6.626 0 0 0-.073.487 5.645 5.645 0 0 0-.024.609c0 .259.007.462.024.608.016.146.04.267.073.364a68.08 68.08 0 0 0-1.61-.035 198.95 198.95 0 0 0-2.627-.013h-4.012c-.278.002-.494.005-.649.013-.185.007-.343.02-.472.035.057-1.005.099-2.031.127-3.078.028-1.046.043-2.243.043-3.59v-3.31a117.431 117.431 0 0 0-.17-6.742c.727.017 1.444.041 2.155.074.71.032 1.428.048 2.154.048 1.194 0 2.256-.012 3.184-.037.928-.024 1.554-.052 1.877-.084zm-53.602 1.071c-.824 0-1.562.2-2.216.596a5.257 5.257 0 0 0-1.658 1.618c-.452.682-.795 1.481-1.029 2.398-.234.917-.35 1.895-.35 2.932 0 1.299.136 2.394.41 3.287.275.892.646 1.61 1.115 2.153a4.13 4.13 0 0 0 1.621 1.18 5.2 5.2 0 0 0 1.938.365c.726 0 1.42-.154 2.082-.462.661-.308 1.238-.778 1.73-1.411.493-.634.888-1.436 1.187-2.41.298-.973.448-2.126.448-3.456 0-1.055-.13-2-.388-2.835-.258-.836-.617-1.546-1.077-2.13a4.73 4.73 0 0 0-1.671-1.35 4.853 4.853 0 0 0-2.142-.475zM97.49 7.901c1.227 0 2.288.126 3.183.378.897.251 1.78.612 2.651 1.082-.129.422-.254.836-.374 1.241-.122.406-.222.82-.303 1.242h-.339a6.03 6.03 0 0 0-1.938-1.765c-.774-.446-1.718-.67-2.832-.67-.742 0-1.48.16-2.215.476a5.634 5.634 0 0 0-1.96 1.423c-.574.633-1.038 1.424-1.393 2.374-.355.948-.532 2.064-.532 3.346 0 .974.133 1.874.4 2.701a6.41 6.41 0 0 0 1.15 2.154 5.218 5.218 0 0 0 1.839 1.424c.726.34 1.558.511 2.493.511.21 0 .449-.012.715-.037.266-.024.524-.052.774-.085.25-.032.48-.077.69-.134.21-.056.363-.117.46-.181.033-.196.053-.44.061-.731.008-.292.012-.617.012-.974 0-1.314-.023-2.283-.073-2.908l-.075-.984-.015-.21-.007-.084c.161.032.376.061.643.085.266.024.649.037 1.15.037.58 0 1.012-.013 1.295-.037.281-.024.504-.053.665-.085-.032.13-.06.34-.084.633a26.15 26.15 0 0 0-.06 1.01 61.199 61.199 0 0 0-.048 2.446v.803c0 .405.002.783.011 1.132.008.349.028.596.06.742a27.6 27.6 0 0 1-3.231.73c-1.09.179-2.168.268-3.233.268-1.389 0-2.667-.183-3.837-.548-1.17-.364-2.179-.9-3.027-1.606a7.476 7.476 0 0 1-1.985-2.555c-.476-.998-.714-2.121-.714-3.371 0-1.542.254-2.892.762-4.053.509-1.16 1.21-2.125 2.107-2.896.896-.77 1.957-1.35 3.184-1.74 1.227-.389 2.55-.584 3.97-.584zm64.062.316c1.387 0 2.65.126 3.788.378 1.139.252 2.12.678 2.942 1.277.824.6 1.46 1.408 1.913 2.422.452 1.014.677 2.292.677 3.833 0 1.347-.222 2.564-.665 3.651-.445 1.087-1.05 2.016-1.816 2.787a7.85 7.85 0 0 1-2.663 1.764 8.581 8.581 0 0 1-3.232.609c-1.211 0-2.244-.009-3.1-.025-.855-.016-1.597-.024-2.227-.024h-1.09c-.322 0-.62.016-.895.049.064-1.006.113-2.033.145-3.08.032-1.046.049-2.242.049-3.589v-3.31c0-1.347-.017-2.543-.049-3.59a105.938 105.938 0 0 0-.145-3.152c.275.033.573.062.896.086.323.024.685.036 1.09.036.532 0 1.129-.02 1.79-.06.663-.04 1.526-.062 2.592-.062zm-34.234-.122l1.658 4.43a290.89 290.89 0 0 0 1.78 4.636 253.597 253.597 0 0 0 1.743 4.32 55.61 55.61 0 0 0 1.55 3.456 13.365 13.365 0 0 0-1.102-.048h-2.058c-.348 0-.69.016-1.03.048-.257-.794-.524-1.606-.799-2.433a74.865 74.865 0 0 0-.87-2.483 98.276 98.276 0 0 0-3.099-.049 64.73 64.73 0 0 0-2.518.05 50.87 50.87 0 0 0-.897 2.482 58.776 58.776 0 0 0-.75 2.433 3.48 3.48 0 0 0-.569-.048h-1.15a4.49 4.49 0 0 0-.63.048c.194-.421.452-1.005.775-1.752.323-.746.678-1.59 1.065-2.531l1.248-3.03c.443-1.079.887-2.17 1.33-3.274.445-1.103.88-2.19 1.308-3.26.428-1.071.82-2.07 1.175-2.995.16.033.314.062.46.086a2.81 2.81 0 0 0 .92 0c.145-.024.298-.053.46-.086zm-61.786.122c-.064.26-.096.601-.096 1.023 0 .26.007.462.024.608.015.146.04.308.072.487-.468-.032-.98-.065-1.537-.097a364.23 364.23 0 0 1-1.623-.098 66.891 66.891 0 0 0-1.416-.073c-.42-.016-.718-.024-.895-.024a42.484 42.484 0 0 0-.11 2.653c-.007.875-.012 1.76-.012 2.653 1.05-.016 1.998-.04 2.845-.073a194.37 194.37 0 0 0 2.652-.122c-.049.276-.082.486-.098.632a4.3 4.3 0 0 0-.024.463c0 .13.012.264.037.402.023.138.052.337.085.596a69.35 69.35 0 0 0-5.497-.22c0 .52-.003 1.04-.011 1.559a89.798 89.798 0 0 0-.013 1.557c0 1.055.024 2.069.073 3.042.92 0 1.84-.024 2.76-.073.92-.048 1.848-.13 2.784-.243a6.869 6.869 0 0 0-.072.487c-.017.145-.024.35-.024.609v.149c.003.189.01.342.024.459.015.146.04.267.072.364a67.852 67.852 0 0 0-1.61-.035c-.496-.007-1.136-.011-1.92-.013h-4.718c-.278.001-.495.005-.649.013-.186.007-.343.02-.472.035.056-1.005.098-2.031.127-3.078.028-1.046.042-2.243.042-3.59v-3.31c0-1.346-.014-2.543-.042-3.59-.029-1.047-.07-2.097-.127-3.152.726.017 1.443.041 2.154.074.71.032 1.429.048 2.155.048 1.195 0 2.255-.012 3.184-.037.928-.024 1.553-.052 1.876-.085zm18.424 0a289.806 289.806 0 0 0-.314 7.375 138.492 138.492 0 0 0-.06 3.127 379.52 379.52 0 0 0-.013 3.298v2.92a9.899 9.899 0 0 0-1.937 0 311.849 311.849 0 0 0-10.58-11.755 86.574 86.574 0 0 0-.048 2.848v2.823c0 .974.004 1.801.012 2.482.008.682.02 1.258.036 1.728.016.471.032.857.049 1.157.016.3.032.54.048.718a3.494 3.494 0 0 0-.581-.049h-.557c-.371 0-.742.016-1.114.049.032-.13.073-.593.122-1.388.048-.794.1-1.764.157-2.908.056-1.144.105-2.385.146-3.724.04-1.338.06-2.624.06-3.857 0-1.12-.017-2.06-.049-2.823-.032-.763-.056-1.437-.073-2.02.452.081.815.121 1.09.121.274 0 .637-.04 1.09-.121a1477.4 1477.4 0 0 0 5.217 5.792 937.051 937.051 0 0 0 5.29 5.793v-4.479c0-.794-.004-1.577-.012-2.349l-.024-2.13a44.574 44.574 0 0 0-.049-1.679c-.024-.47-.052-.786-.084-.948a6.46 6.46 0 0 0 1.09.121c.273 0 .637-.04 1.088-.121zm27.625 0a102.94 102.94 0 0 0-.146 3.152 118.307 118.307 0 0 0-.048 3.59v3.31c0 .925.004 1.817.012 2.677.008.86.02 1.607.036 2.24.92 0 1.841-.025 2.76-.074a41 41 0 0 0 2.785-.243 6.89 6.89 0 0 0-.073.486c-.016.146-.024.35-.024.61 0 .259.008.461.024.608.016.145.04.267.073.364a67.908 67.908 0 0 0-1.61-.036c-.638-.008-1.514-.012-2.627-.012h-3.838a20.7 20.7 0 0 0-.822.012 6.09 6.09 0 0 0-.473.036 92.88 92.88 0 0 0 .145-3.078c.033-1.047.049-2.243.049-3.59v-3.31a104.385 104.385 0 0 0-.193-6.742c.274.033.572.061.895.085.323.025.686.037 1.09.037.403 0 .766-.012 1.089-.037.323-.024.621-.052.896-.085zm39.754 0a283.35 283.35 0 0 0-.315 7.375 138.514 138.514 0 0 0-.06 3.127 381.19 381.19 0 0 0-.012 3.298v2.92a9.888 9.888 0 0 0-1.937 0 312.261 312.261 0 0 0-10.58-11.755 74.66 74.66 0 0 0-.048 2.848v3.622c.002.635.005 1.197.011 1.683a73.094 73.094 0 0 0 .085 2.884c.016.301.032.54.048.719a3.487 3.487 0 0 0-.58-.049h-.558c-.37 0-.743.016-1.113.049.031-.13.073-.593.12-1.388l.038-.629c.037-.661.077-1.421.12-2.279.056-1.144.105-2.385.146-3.724.04-1.338.06-2.624.06-3.857 0-1.12-.017-2.06-.048-2.823-.032-.763-.057-1.437-.073-2.02.452.081.815.121 1.09.121.274 0 .636-.04 1.089-.121a1442.04 1442.04 0 0 0 5.217 5.792 946.65 946.65 0 0 0 5.29 5.793v-4.479c0-.795-.003-1.577-.012-2.349l-.024-2.13a44.675 44.675 0 0 0-.048-1.679c-.025-.47-.053-.786-.085-.948.452.081.815.121 1.089.121s.637-.04 1.09-.121zm10.168 1.387c-.58 0-1.053.013-1.416.037-.364.025-.73.053-1.102.085 0 .114-.004.366-.012.755-.009.39-.012.827-.012 1.314V21.85c.002.338.006.653.012.945.008.39.012.64.012.754a27.016 27.016 0 0 0 2.13.072c1.824 0 3.269-.623 4.334-1.872 1.066-1.25 1.598-3.14 1.598-5.672 0-1.005-.133-1.905-.398-2.7-.268-.795-.643-1.473-1.128-2.033a4.893 4.893 0 0 0-1.742-1.29c-.679-.3-1.437-.45-2.276-.45zm-36.025 3.189c-.42.974-.816 1.935-1.187 2.884-.371.95-.735 1.919-1.09 2.909h4.431c-.355-.99-.706-1.96-1.052-2.909-.348-.95-.715-1.91-1.102-2.884zM48.03 24.118c0 14.954-6.376 23.541-11.725 28.113-5.282 4.513-10.637 6.122-11.617 6.39-.98-.278-6.337-1.947-11.622-6.493-5.35-4.602-11.728-13.198-11.728-28.01V7.603c.585-.467 2.35-1.76 5.388-3.04 3.493-1.473 9.43-3.227 17.875-3.227 14.617 0 22.081 5.225 23.43 6.272v16.51z"/>
    <path fill="#FFF" d="M24.601 0C41.32 0 48.832 6.515 49.144 6.792l.224.2v17.126c0 15.495-6.658 24.415-12.242 29.17-6.057 5.155-12.036 6.615-12.287 6.674L24.68 60l-.157-.04c-.252-.062-6.228-1.59-12.282-6.778C6.657 48.396 0 39.469 0 24.118V6.995l.218-.198C.524 6.519 7.881 0 24.601 0zm0 1.336c-8.446 0-14.382 1.754-17.875 3.226-3.037 1.28-4.803 2.574-5.388 3.04v16.516c0 14.812 6.378 23.408 11.728 28.01 4.387 3.775 8.825 5.566 10.766 6.224l.249.083c.272.089.477.15.607.187.98-.269 6.335-1.878 11.617-6.391 5.349-4.572 11.726-13.16 11.726-28.113V7.608c-1.349-1.047-8.813-6.272-23.43-6.272zm-3.467 32.95c-.132.096-.354.256-.298.49.05.373.941.277 1.34 1.25-.408-.183-.443.08-.132.294.32.274.773.572.953 1.661 0 0-.312-.375-.468-.108-.204.387 1.236.062 1.767 1.751.098.296.28.627.616.782-.042-.017-.576-.061-1.491-.51.645.625 1.018.673 2.236.692 1.313.056 5.326-.054 6.415.072.415.048 1.412.11 1.736.073 1.033-.117 1.908-.309 2.614-.574 1.012-.379 1.427-.814 1.595-1.113.165-.287.178-.574.036-.85-.277-.54-1.207-.456-2.576-.078a2.97 2.97 0 0 1-.255.073c-1.145.312-.822.728-1.674 1.116.106-.398.097-.527-.148-.453-.246.075-.87.292-1.125.378-2.39.798-4.646.776-5.75-.054-.44-.333-.666-.776-.652-1.28a1.39 1.39 0 0 1 .485-1.032c.787-.707 2.395-.797 3.325-.784.129-.166.448-.27 1.218-.273 1.25-.01 1.682-.01 2.133-.55-.02.248-.111.39-.111.39s.368-.073.836-.538c-.441 1.43-1.962 1.35-2.756 1.468.119.111.514.177.514.177s-1.654.724-1.884-.09c-.936-.005-2.297.105-2.89.639a.822.822 0 0 0-.291.61c-.008.309.132.576.42.791.436.33 1.223.542 2.27.523-.087-.158.102-.602.37-.67-.316.837.5.637.884.573.383-.064 1.03-.235 1.696-.457l.746-.25c1.588-.535 2.594-.956 3.568-1.125.727-.124 1.742-.195 2.162.628.23.452.213.953-.048 1.412-.346.607-1.401 1.604-4.607 1.972.672.39 3.383 1.857 5.412-1.212.18.477-.311.817.038 1.094.102.114.758.123 1.02.856-1.058-.441-.87-.064-.62.063.546.187 1.106.858 1.008.994-.575-.315-.762-.09-.754.018.006.253.71.32.702.8-.82-.102-.558.215-.558.215s1.006.931.123 1.43c-.25.141-1.289-.288-1.756.722-.043.05-.298.4-.68.54-.6.109-.413.588-.414 1.025-.26-.24-.427-.78-.352-1.189-.439 0-.464.838-.464.838-.142-.222-.172-.813-.053-1.172-.352.052-.59.85-.59.85v-.001l-.04-.126c-.072-.3-.002-.625.16-.896l.074-.112c-.038-.12.038-.581.649-.686.974-.1 1.157-.253 1.157-.253s.386-.22.54-.666c.27-.78-.27-1.62-1.435-1.53-1.083.087-1.25 1.819-2.21 1.779.4-.378.48-1.025.507-1.332-3.605 1.063-4.275-.473-4.275-.473s-1.208.83-.065 1.411c.175.09 1.387.69 2.756.289-.348 1.034-2.281 1.167-2.281 1.167s.28.473-.18.6c-.75.238-1.183.043-1.346.076-.176.035-.644.62-1.085.549-.403-.064-.354.697-.354.697-.368-.193-.163-1.078-.165-1.078-.6.097-.505.918-.505.918-.63-.627-.005-1.294.12-1.415l.02-.02-.047.024c-.168.085-.725.393-.872.791-.099-.11-.13-.967.396-1.149.192-.847 1.673.102 2.256-.447-2.772-.697-1.35-2.442-1.35-2.442s-.37.143-.672.625c-.98-.043-1.814.337-2.624.762l-.559.296c-1.238.655-2.481 1.21-4.164.29-.091.229-.459.71.517.987-.618.811-1.794 0-2.337-.32-.441 1.62-1.366 1.275-1.634 1.203.265-.192.501-.507.1-.638-.73-.203-1.076.74-1.978.595.3-.725.143-.87-.301-.883-.445-.017-.531.46-1.416.255.036-.108.36-.557-.152-.744-.53-.195-1.849.156-1.585-.295.448-.767-.032-.834-.138-.84h-.02s-.316.738-.659.68c-.427-.052-.975-.26-.832.377-.314-.362-.17-1.55 1.06-1.434.073-.304-1.303-.014-.908-1.127.092-.105-.238-.323-.797-.077.718-.71 1.382-.468 1.973.31.274.23.36.198.36.198s-.34-.292-.326-.637c.009-.232.2-.45.33-.463-.086-.465-.588-.537-.588-.537s1.005-.464 1.276.956c.144.84.807 2.335 2.64 2.293 0 0 1.028.09 1.57-1.041.585-1.227 2.154-.884 2.703-2.049.334.339.166.788-.343 1.005-.127.053 1.39.995 2.04-1.36.023-.085.632.527.21 1.324-.045.086.867.131 1.26-.563.838-1.482 1.723-.56 1.837-.403l.004.005-.045-.092c-.315-.583-.79-.774-1.484-.296l-.124.091s-.065-1.17-1.77-1.123c.888.125 1.763.78 1.328 1.65-.304.41-.645.491-.645.491.3-.54-.165-1.448-.796-1.565.064.29-.466 2.192-1.372 1.782.913-.557-.26-1.406-.26-1.406.102.394-.416.965-1.34 1.282l-.201.075c-.946.378-1.087.814-1.328 1.23-.078-.08-1.464-1.868.729-2.659.55-.198 1.633-.859 1.375-2.552-.015-.101-.043-.12-.003-.168.188-.1.946-.693 1.037-.81 1.645.162 2.042.771 2.403 1.353.001.001-.375-1.467-2.179-1.598.24-.312.15-.527.054-.633-.153-.17-.335-.492-.33-.615.049-.979 1.203-.748 1.11-.785a1.064 1.064 0 0 0-1.188.326c.068-1.183 1.71-1.29 1.916-1.301zM10.663 35c.304-.017.854.14.854.751.203 0 .13.21.125.31-.04.77-.294 1.8.113 2.314.698.806 2.593 1.734 3.207 2.01-.636 1.052-.01 1.523.215 1.814-.135.597.564 1.575.564 1.575s-.016.07-.237.246c-.93.453-1.702.32-2.522-.368.514-.069 1.165-.24 1.074-1.079-.062-.76-1.704-.685-1.938-1.524.483.09.764-.087.629-.442-.157-.474-1.829-.04-2.284-.916.746-.023.794-.37.746-.508-.049-.116-.17-.17-.31-.214l-.122-.038c-.329-.103-.664-.243-.337-1.071-.201-.216-.46.356-.87.377-.41.017-.43-.357-.43-.357s-.546.513-.546.573c0 .06-.206-1.444 1.42-1.11.116-.537-1.494-.393-.617-1.412-.142-.264-.803-.34-.803-.34s1.29-.613 1.959 1.056c0-.18-.47-1.03.443-.996.154.04-.333-.65-.333-.65zm4.93 5s.019 1.032.863.93c-.371.191-1.056.586-1.056 1.213-.846-.996-.026-1.16.193-2.143zm3.44-5c-.1.346-.233 1.085.197 1.675.036.05.1.142.086.214-.084.426-1.02 1.024-1.35 1.231a.123.123 0 0 0-.04.165c.55 1.537-.846 2.43-1.342 2.43-.723-.007-.583-.705-.563-.963l.125.324c.007.02.024.034.045.039l.297.064c.03.007.063-.01.073-.042l.132-.412.104.423a.064.064 0 0 0 .059.047c.74.01 1.117-1.57.157-1.576-.263-.001-.364.649-.375.713l-.251-.692a.062.062 0 0 0-.053-.04s-.664-.065-.685-.066c-.06-.006-.079.047-.064.082l.197.513c-.275-.319-.602-.73-.704-.967-.1-.237-.14-.368.646-1.063.07-.062.624-.419.554-.642-.05-.155-.31-.105-.377-.096.08-.882 2.879-1.321 3.132-1.361zm-3.778 2.843a.062.062 0 0 0-.075.027.063.063 0 0 0 .016.078l.517.401c.02.014.041.017.064.008l.893-.376a.062.062 0 0 0 .035-.073.065.065 0 0 0-.07-.044l-.946.122zm3.198-1.453l-1.292.198a.121.121 0 0 0-.1.14c.011.065.073.11.141.099 0 0 .241-.034.324-.005.082.027.12.131.222.095.104-.038.77-.295.77-.295a.118.118 0 0 0 .074-.143.122.122 0 0 0-.139-.089zm2.325-15.676c-.144.103-.385.269-.326.515.055.393 1.027.293 1.462 1.317-.444-.192-.482.085-.143.309.348.287.844.602 1.04 1.748 0 0-.342-.394-.51-.113-.223.407 1.347.067 1.926 1.842.107.315.308.66.673.826-.046-.02-.628-.066-1.626-.54.703.66 1.11.71 2.44.731.288.012.691.016 1.164.017h.597c1.872-.004 4.38-.037 5.236.059.453.05 1.541.116 1.895.077 1.126-.124 2.082-.326 2.853-.605 1.102-.4 1.554-.857 1.739-1.172.179-.302.19-.603.038-.895-.301-.568-1.317-.479-2.81-.081a3 3 0 0 1-.28.076c-1.249.33-.895.766-1.825 1.176.116-.42.106-.557-.16-.478-.269.079-.95.308-1.228.398-2.607.839-5.07.817-6.274-.058-.48-.349-.727-.816-.711-1.346.012-.427.19-.792.53-1.086.859-.743 2.612-.84 3.627-.827.14-.174.49-.282 1.329-.287 1.362-.01 1.835-.01 2.325-.577-.02.26-.119.41-.119.41s.4-.078.912-.567c-.481 1.507-2.14 1.42-3.008 1.546.13.116.562.185.562.185s-1.806.763-2.058-.092c-1.019-.008-2.502.11-3.15.672a.844.844 0 0 0-.318.64c-.009.326.146.606.458.834.476.346 1.336.57 2.477.548-.095-.165.11-.633.403-.705-.344.883.544.673.964.604.419-.067 1.125-.246 1.85-.48.278-.091.55-.18.815-.264 1.732-.562 2.83-1.006 3.892-1.182.793-.132 1.9-.207 2.359.657.252.477.234 1.005-.052 1.488-.377.64-1.529 1.689-5.025 2.078.732.41 3.69 1.954 5.904-1.279.193.504-.34.862.04 1.154.112.119.828.13 1.113.9-1.153-.464-.949-.066-.68.066.599.198 1.21.905 1.103 1.046-.626-.33-.83-.095-.823.02.009.266.776.338.767.841-.896-.105-.61.227-.61.227.088.081 1.057 1.003.135 1.506-.272.149-1.406-.304-1.918.76-.044.052-.322.422-.74.567-.653.117-.45.62-.451 1.08-.283-.252-.465-.822-.385-1.253-.477 0-.503.883-.503.883-.157-.232-.19-.854-.061-1.234-.384.055-.642.896-.642.896-.16-.395-.05-.853.211-1.196-.041-.125.04-.61.709-.721 1.062-.106 1.26-.267 1.26-.267s.424-.23.592-.7c.293-.823-.297-1.706-1.568-1.608-1.182.089-1.363 1.912-2.41 1.87.435-.4.525-1.078.554-1.403-3.936 1.118-4.666-.497-4.666-.497s-1.315.874-.07 1.484c.193.094 1.513.727 3.007.306-.38 1.088-2.488 1.228-2.488 1.228l.004.006.024.047c.062.131.176.47-.226.579-.818.249-1.29.045-1.467.079-.192.039-.701.653-1.185.578-.44-.067-.384.735-.384.735-.403-.204-.179-1.136-.182-1.136-.653.101-.55.966-.55.966-.76-.73.153-1.51.153-1.51s-.814.36-1.002.857c-.11-.116-.142-1.019.43-1.207.21-.894 1.825.106 2.462-.471-3.023-.737-1.473-2.573-1.473-2.573s-.404.15-.731.659c-1.04-.044-1.931.333-2.793.766l-.396.202c-1.447.745-2.863 1.488-4.827.452-.1.239-.502.747.562 1.036-.674.854-1.954 0-2.549-.335-.48 1.705-1.49 1.343-1.782 1.267.29-.203.547-.533.11-.672-.8-.213-1.173.778-2.16.626.33-.763.159-.915-.327-.93-.485-.015-.58.484-1.543.268.038-.112.39-.584-.169-.782-.183-.065-.454-.072-.73-.067l-.234.007c-.501.016-.934.03-.763-.25.545-.902-.173-.886-.173-.886s-.344.778-.72.718c-.466-.056-1.063-.275-.905.397-.346-.382-.188-1.632 1.156-1.512.078-.32-1.422-.014-.992-1.184.1-.112-.26-.34-.869-.08.782-.75 1.507-.495 2.151.324.3.24.394.209.394.209s-.371-.307-.356-.671c.011-.245.22-.473.36-.49-.094-.486-.64-.562-.64-.562s1.093-.49 1.391 1.006c.156.885.88 2.458 2.88 2.414 0 0 1.123.094 1.712-1.095.639-1.293 2.352-.932 2.95-2.159.365.357.18.83-.375 1.059-.14.056 1.517 1.048 2.225-1.431.026-.09.688.554.231 1.393-.05.09.945.14 1.374-.593.916-1.563 1.884-.585 2.005-.423l.009.013-.055-.105c-.343-.614-.864-.814-1.619-.312l-.135.096s-.073-1.233-1.93-1.183c.968.132 1.922.82 1.448 1.738-.333.431-.703.515-.703.515.326-.568-.183-1.524-.87-1.646.07.304-.507 2.307-1.497 1.874.995-.586-.283-1.479-.283-1.479.111.414-.456 1.017-1.464 1.352-1.23.414-1.387.906-1.666 1.371-.074-.072-1.205-1.477.01-2.398-.348.221-.732.56-.732 1.03-.743-.874-.202-1.107.089-1.816-.083-.244-.03-.54-.02-.695l.147.367a.08.08 0 0 0 .052.043l.348.072a.072.072 0 0 0 .083-.047l.155-.463.12.476c.008.03.04.05.07.053.865.01 1.304-1.767.185-1.773-.307-.004-.426.729-.439.802l-.293-.78a.07.07 0 0 0-.06-.046l-.8-.073c-.07-.006-.09.054-.074.092l.229.578c-.321-.358-.7-.821-.82-1.088-.118-.268-.165-.415.752-1.196.082-.07.727-.473.647-.723-.06-.175-.362-.118-.438-.108.09-.994 3.355-1.488 3.651-1.531-.116.39-.273 1.22.231 1.885.041.056.117.16.1.238-.099.48-1.189 1.154-1.577 1.389a.132.132 0 0 0-.046.184c.64 1.73-.985 2.732-1.565 2.732a.894.894 0 0 1-.333-.058c.125.179.33.314.662.273l-.044.003a3.34 3.34 0 0 1 .506-.221c.598-.208 1.78-.903 1.5-2.686-.017-.106-.048-.127-.005-.176.205-.107 1.033-.73 1.132-.854 1.795.173 2.228.813 2.621 1.425.002.002-.407-1.544-2.376-1.681.262-.33.163-.556.058-.668-.167-.179-.364-.519-.36-.647.054-1.03 1.313-.789 1.212-.826a1.182 1.182 0 0 0-1.295.343c.073-1.244 1.865-1.357 2.088-1.37zM16.456 34.39c.676-.289.888.098 1.431.243-.183.058-1.066.311-1.224.367.01-.212-.046-.453-.207-.61zM9.438 21.43c.335-.019.94.15.94.808.223 0 .143.225.137.335-.043.827-.323 1.939.124 2.49.768.87 2.853 1.869 3.528 2.167-.7 1.132-.011 1.64.237 1.953-.151.644.621 1.696.621 1.696s-.019.076-.262.264c-1.024.489-1.872.346-2.774-.396.564-.073 1.282-.257 1.182-1.162-.07-.817-1.875-.738-2.132-1.64.532.095.84-.093.691-.478-.172-.51-2.01-.042-2.51-.983.82-.027.871-.4.82-.55-.06-.137-.216-.192-.388-.244l-.13-.04c-.347-.11-.674-.284-.33-1.141-.222-.233-.504.385-.955.405-.452.021-.473-.383-.473-.383s-.6.554-.6.617c0 .064-.227-1.555 1.56-1.195.047-.215-.166-.329-.404-.443l-.144-.07c-.358-.176-.667-.4-.13-1.01-.156-.282-.882-.362-.882-.362s1.42-.66 2.153 1.135c0-.194-.515-1.107.486-1.072.171.043-.365-.701-.365-.701zm4.425 3.196a.075.075 0 0 0-.087.033.067.067 0 0 0 .018.087l.604.45c.023.016.047.02.074.01l1.041-.423a.072.072 0 0 0 .041-.082.074.074 0 0 0-.08-.05l-1.106.137zm3.773-1.635h-.043l-1.508.225a.137.137 0 0 0-.117.156.144.144 0 0 0 .165.112s.283-.037.378-.007c.096.032.14.149.26.106.077-.026.419-.153.657-.241l.171-.063.069-.026a.136.136 0 0 0 .087-.162.145.145 0 0 0-.162-.1zm-1.895-2.172c1.015-.29 1.33.097 2.146.242-.274.059-1.598.313-1.836.368a.664.664 0 0 0-.31-.61zm5.037-13.676c-.144.101-.385.267-.326.513.055.395 1.027.294 1.462 1.317-.444-.192-.482.085-.143.31.348.287.844.601 1.04 1.748 0 0-.342-.394-.51-.114-.223.407 1.347.068 1.926 1.844.107.313.308.66.673.825-.046-.02-.628-.066-1.626-.54.703.66 1.11.71 2.44.73.288.012.691.017 1.164.018h.597c.416 0 .863-.003 1.317-.005l.682-.003c1.361-.003 2.666.003 3.237.067.453.05 1.541.116 1.895.077 1.126-.123 2.082-.326 2.853-.605 1.102-.4 1.554-.857 1.739-1.172.179-.302.19-.603.038-.894-.301-.57-1.317-.48-2.81-.082a3.024 3.024 0 0 1-.28.076c-1.249.33-.895.766-1.825 1.176.116-.42.106-.557-.16-.478-.269.078-.95.308-1.228.398-2.607.839-5.07.816-6.274-.059-.48-.348-.727-.815-.711-1.346.012-.426.19-.791.53-1.085.859-.744 2.612-.84 3.627-.828.14-.174.49-.281 1.329-.287 1.362-.01 1.834-.01 2.325-.577a1.014 1.014 0 0 1-.099.376l-.02.036s.4-.08.912-.569c-.481 1.507-2.14 1.421-3.008 1.547.13.115.562.184.562.184s-1.806.763-2.058-.092c-1.019-.008-2.502.11-3.15.672a.845.845 0 0 0-.318.641c-.009.325.146.605.458.833.476.346 1.336.57 2.477.549-.095-.164.11-.634.403-.705-.344.883.544.672.964.605.419-.069 1.125-.247 1.85-.481.278-.091.55-.18.815-.264 1.732-.562 2.83-1.006 3.892-1.183.793-.132 1.9-.207 2.359.66.252.475.234 1.003-.052 1.486-.377.64-1.529 1.689-5.025 2.076.732.412 3.69 1.956 5.904-1.276.193.503-.34.86.04 1.153.112.12.828.13 1.113.9-1.153-.463-.949-.065-.68.066.599.2 1.21.905 1.103 1.046-.626-.33-.83-.095-.823.021.009.267.776.337.767.84-.896-.105-.61.228-.61.228.088.08 1.057 1.002.135 1.505-.272.15-1.406-.304-1.918.76-.044.053-.322.423-.74.568-.653.117-.45.62-.451 1.08-.283-.252-.465-.822-.386-1.253-.476 0-.502.883-.502.883-.157-.233-.19-.855-.061-1.234-.384.053-.642.895-.642.895v-.001l-.043-.132c-.08-.316-.003-.659.173-.944l.081-.118c-.041-.125.04-.611.709-.722 1.061-.105 1.26-.266 1.26-.266s.424-.232.592-.7c.293-.822-.297-1.706-1.568-1.61-1.182.09-1.363 1.913-2.41 1.871.435-.398.525-1.078.554-1.402-3.936 1.12-4.666-.499-4.666-.499s-1.315.876-.07 1.485c.193.094 1.513.728 3.007.306-.38 1.088-2.488 1.23-2.488 1.23l.004.006.024.047c.062.131.176.47-.226.577-.818.25-1.29.045-1.467.08-.192.038-.701.653-1.185.578-.44-.067-.384.735-.384.735-.403-.204-.179-1.136-.182-1.136-.653.103-.55.966-.55.966-.76-.73.153-1.51.153-1.51s-.814.362-1.002.857c-.11-.116-.142-1.018.43-1.208.21-.894 1.825.105 2.462-.47-3.023-.737-1.473-2.574-1.473-2.574s-.404.15-.731.66c-1.04-.045-1.931.332-2.793.765l-.396.202c-1.447.746-2.863 1.49-4.827.453-.1.238-.502.747.562 1.036-.674.854-1.954 0-2.549-.336-.48 1.706-1.49 1.344-1.782 1.268.29-.203.547-.534.11-.671-.8-.215-1.173.776-2.16.624.33-.761.159-.915-.327-.93-.485-.015-.58.485-1.543.268.038-.111.39-.584-.169-.782-.577-.204-2.016.165-1.727-.31.49-.812-.042-.88-.153-.885h-.02l-.006.012-.045.092c-.11.21-.38.661-.669.614-.466-.057-1.063-.276-.905.396-.346-.381-.188-1.632 1.156-1.511.078-.32-1.422-.015-.992-1.185.1-.112-.26-.34-.869-.08.782-.748 1.507-.494 2.151.324.3.242.394.21.394.21s-.371-.308-.356-.672c.011-.245.22-.473.36-.489-.094-.487-.64-.563-.64-.563s1.093-.49 1.391 1.006c.156.885.88 2.458 2.88 2.415l.024.001h.069c.281-.007 1.132-.114 1.62-1.097.638-1.292 2.35-.93 2.948-2.158.366.356.182.83-.374 1.058-.14.057 1.517 1.048 2.225-1.431.026-.091.688.554.231 1.394-.05.09.945.138 1.374-.594.916-1.563 1.884-.585 2.005-.423l.007.01-.053-.102c-.343-.614-.864-.815-1.619-.313l-.135.096s-.073-1.232-1.93-1.182c.968.131 1.922.822 1.448 1.738-.333.431-.703.515-.703.515.326-.568-.183-1.524-.87-1.646.07.306-.507 2.308-1.498 1.874.996-.586-.282-1.48-.282-1.48.111.415-.456 1.02-1.464 1.353-1.23.415-1.387.907-1.666 1.371-.086-.083-1.597-1.965.796-2.799.598-.209 1.78-.903 1.5-2.686-.017-.106-.048-.127-.005-.176.205-.108 1.033-.73 1.132-.854 1.795.172 2.228.812 2.621 1.425.002.001-.407-1.545-2.376-1.682.262-.33.163-.556.058-.668-.167-.179-.364-.518-.36-.647.054-1.03 1.313-.787 1.212-.826a1.181 1.181 0 0 0-1.295.343c.073-1.244 1.865-1.356 2.088-1.368zm-11.34.715c.335-.018.94.15.94.809.223 0 .143.225.137.335-.043.828-.323 1.938.124 2.49.768.87 2.853 1.868 3.528 2.166-.7 1.133-.011 1.64.237 1.953-.151.644.621 1.696.621 1.696s-.019.077-.262.264c-1.024.49-1.872.346-2.774-.396.564-.073 1.282-.255 1.182-1.161-.07-.818-1.875-.738-2.132-1.642.532.096.84-.093.691-.475-.172-.51-2.01-.043-2.51-.985.82-.026.871-.4.82-.549-.06-.137-.216-.193-.388-.245l-.13-.04c-.347-.11-.674-.283-.33-1.14-.222-.233-.504.384-.955.404a.414.414 0 0 1-.473-.382s-.6.553-.6.616c0 .064-.227-1.555 1.56-1.194.038-.172-.09-.28-.266-.374l-.138-.07c-.404-.193-.882-.387-.274-1.079-.156-.282-.882-.363-.882-.363s1.42-.66 2.153 1.137c0-.196-.515-1.108.486-1.073.171.043-.365-.702-.365-.702zm8.831-.715c-.116.388-.273 1.22.231 1.885.041.056.117.16.1.239-.099.48-1.189 1.152-1.577 1.386a.133.133 0 0 0-.046.184c.64 1.731-.985 2.734-1.565 2.734a.895.895 0 0 1-.333-.057c.125.178.33.313.662.273-.372.192-1.056.585-1.056 1.213-.743-.875-.202-1.108.09-1.817-.084-.244-.032-.54-.02-.696l.146.368c.01.022.03.037.052.042l.348.073a.072.072 0 0 0 .083-.047l.155-.462.12.475c.008.03.04.051.07.053.865.01 1.304-1.767.185-1.773-.307-.003-.426.73-.439.802l-.293-.78a.073.073 0 0 0-.06-.046s-.776-.072-.8-.073c-.07-.006-.09.053-.074.092l.229.578c-.321-.358-.7-.82-.82-1.087-.118-.268-.165-.417.752-1.197.082-.07.727-.472.647-.723-.06-.175-.362-.118-.438-.107.04-.433.68-.77 1.415-1.018a.653.653 0 0 0-.292-.41c.72-.205 1.088-.07 1.533.078.503-.108.9-.168.995-.182zm-4.406 3.197a.075.075 0 0 0-.087.033.067.067 0 0 0 .018.087l.604.45a.078.078 0 0 0 .074.01l1.041-.422a.072.072 0 0 0 .041-.083.075.075 0 0 0-.08-.05l-1.106.137zm3.773-1.635h-.043l-1.508.224c-.077.013-.13.084-.117.157a.146.146 0 0 0 .165.112s.283-.038.378-.006c.096.031.14.148.26.106.077-.027.419-.153.657-.242l.171-.063.069-.025a.136.136 0 0 0 .087-.163.145.145 0 0 0-.162-.1z"/>
  </g>
</svg>
